<svg width="393" height="852" viewBox="0 0 393 852" fill="none" xmlns="http://www.w3.org/2000/svg">
<g clip-path="url(#clip0_1316_225)">
<rect width="393" height="852" fill="black"/>
<rect width="393" height="90" fill="black"/>
<path d="M132.5 27L151.986 60.75H113.014L132.5 27Z" fill="white"/>
<path d="M165.224 34.932C167.768 34.932 169.568 35.592 170.624 36.912C171.68 38.208 172.208 39.9 172.208 41.988C172.208 44.076 171.68 45.768 170.624 47.064C169.568 48.36 167.768 49.008 165.224 49.008H161.624V57H157.952V34.932H165.224ZM164.72 47.712C166.04 47.712 167 47.208 167.6 46.2C168.224 45.192 168.536 43.788 168.536 41.988C168.536 40.212 168.224 38.82 167.6 37.812C167 36.804 166.04 36.3 164.72 36.3H161.624V47.712H164.72ZM191.36 57H187.4L184.304 49.332C184.016 48.636 183.656 48.18 183.224 47.964C182.816 47.724 182.18 47.604 181.316 47.604H179.624V57H175.952V34.932H183.332C185.948 34.932 187.784 35.58 188.84 36.876C189.896 38.148 190.424 39.696 190.424 41.52C190.424 42.864 190.1 44.064 189.452 45.12C188.828 46.152 187.736 46.872 186.176 47.28C187.04 47.592 187.664 48.168 188.048 49.008L191.36 57ZM182.936 46.272C184.232 46.272 185.192 45.816 185.816 44.904C186.44 43.968 186.752 42.84 186.752 41.52C186.752 40.056 186.44 38.82 185.816 37.812C185.192 36.804 184.232 36.3 182.936 36.3H179.624V46.272H182.936ZM199.452 57H195.78V34.932H199.452V57ZM218.591 55.164V57H203.147V54.66L214.451 36.768H203.759V34.932H218.303V37.2L206.891 55.164H218.591ZM239.857 37.128L233.845 56.928V57H230.569L224.557 36.948L224.053 57H221.893L222.505 34.932H227.293L232.765 53.364L238.345 34.932H243.313L243.961 57H240.325L239.857 37.128Z" fill="white"/>
<rect x="12.5" y="799.5" width="360" height="38" rx="9.5" fill="black" stroke="white"/>
<path d="M148.12 825V813.48H156.944V825H155.768V814.608H149.296V825H148.12ZM162.791 825.24C161.932 825.24 161.199 825.045 160.591 824.656C159.983 824.267 159.516 823.728 159.191 823.04C158.865 822.352 158.703 821.563 158.703 820.672C158.703 819.765 158.868 818.971 159.199 818.288C159.529 817.605 159.999 817.075 160.607 816.696C161.22 816.312 161.948 816.12 162.791 816.12C163.655 816.12 164.391 816.315 164.999 816.704C165.612 817.088 166.079 817.624 166.399 818.312C166.724 818.995 166.887 819.781 166.887 820.672C166.887 821.579 166.724 822.376 166.399 823.064C166.073 823.747 165.604 824.28 164.991 824.664C164.377 825.048 163.644 825.24 162.791 825.24ZM162.791 824.112C163.751 824.112 164.465 823.795 164.935 823.16C165.404 822.52 165.639 821.691 165.639 820.672C165.639 819.627 165.401 818.795 164.927 818.176C164.457 817.557 163.745 817.248 162.791 817.248C162.145 817.248 161.612 817.395 161.191 817.688C160.775 817.976 160.463 818.379 160.255 818.896C160.052 819.408 159.951 820 159.951 820.672C159.951 821.712 160.191 822.547 160.671 823.176C161.151 823.8 161.857 824.112 162.791 824.112ZM168.011 826.92V823.992C168.502 823.992 168.854 823.835 169.067 823.52C169.281 823.2 169.454 822.691 169.587 821.992C169.678 821.539 169.753 821.051 169.811 820.528C169.87 820.005 169.921 819.408 169.963 818.736C170.006 818.059 170.046 817.267 170.083 816.36H175.795V823.992H176.627V826.92H175.491V825H169.139V826.92H168.011ZM170.003 823.992H174.627V817.368H171.171C171.155 817.773 171.131 818.203 171.099 818.656C171.073 819.109 171.038 819.563 170.995 820.016C170.958 820.469 170.913 820.896 170.859 821.296C170.811 821.691 170.753 822.037 170.683 822.336C170.603 822.72 170.515 823.048 170.419 823.32C170.329 823.592 170.19 823.816 170.003 823.992ZM177.589 826.92V823.992C178.08 823.992 178.432 823.835 178.645 823.52C178.859 823.2 179.032 822.691 179.165 821.992C179.256 821.539 179.331 821.051 179.389 820.528C179.448 820.005 179.499 819.408 179.541 818.736C179.584 818.059 179.624 817.267 179.661 816.36H185.373V823.992H186.205V826.92H185.069V825H178.717V826.92H177.589ZM179.581 823.992H184.205V817.368H180.749C180.733 817.773 180.709 818.203 180.677 818.656C180.651 819.109 180.616 819.563 180.573 820.016C180.536 820.469 180.491 820.896 180.437 821.296C180.389 821.691 180.331 822.037 180.261 822.336C180.181 822.72 180.093 823.048 179.997 823.32C179.907 823.592 179.768 823.816 179.581 823.992ZM191.464 825.24C190.621 825.24 189.89 825.053 189.272 824.68C188.658 824.307 188.181 823.781 187.84 823.104C187.498 822.427 187.328 821.632 187.328 820.72C187.328 819.776 187.496 818.96 187.832 818.272C188.168 817.584 188.64 817.053 189.248 816.68C189.861 816.307 190.584 816.12 191.416 816.12C192.269 816.12 192.997 816.317 193.6 816.712C194.202 817.101 194.658 817.661 194.968 818.392C195.277 819.123 195.418 819.995 195.392 821.008H194.192V820.592C194.17 819.472 193.928 818.627 193.464 818.056C193.005 817.485 192.333 817.2 191.448 817.2C190.52 817.2 189.808 817.501 189.312 818.104C188.821 818.707 188.576 819.565 188.576 820.68C188.576 821.768 188.821 822.613 189.312 823.216C189.808 823.813 190.509 824.112 191.416 824.112C192.034 824.112 192.573 823.971 193.032 823.688C193.496 823.4 193.861 822.987 194.128 822.448L195.224 822.872C194.882 823.624 194.378 824.208 193.712 824.624C193.05 825.035 192.301 825.24 191.464 825.24ZM188.16 821.008V820.024H194.76V821.008H188.16ZM201.047 825.24C200.252 825.24 199.58 825.04 199.031 824.64C198.482 824.235 198.066 823.688 197.783 823C197.5 822.307 197.359 821.531 197.359 820.672C197.359 819.797 197.5 819.019 197.783 818.336C198.071 817.648 198.492 817.107 199.047 816.712C199.602 816.317 200.284 816.12 201.095 816.12C201.884 816.12 202.562 816.32 203.127 816.72C203.692 817.12 204.124 817.664 204.423 818.352C204.727 819.04 204.879 819.813 204.879 820.672C204.879 821.536 204.727 822.312 204.423 823C204.119 823.688 203.682 824.235 203.111 824.64C202.54 825.04 201.852 825.24 201.047 825.24ZM197.159 828.84V816.36H198.215V822.864H198.343V828.84H197.159ZM200.927 824.144C201.53 824.144 202.031 823.992 202.431 823.688C202.831 823.384 203.13 822.971 203.327 822.448C203.53 821.92 203.631 821.328 203.631 820.672C203.631 820.021 203.532 819.435 203.335 818.912C203.138 818.389 202.836 817.976 202.431 817.672C202.031 817.368 201.522 817.216 200.903 817.216C200.3 817.216 199.799 817.363 199.399 817.656C199.004 817.949 198.708 818.357 198.511 818.88C198.314 819.397 198.215 819.995 198.215 820.672C198.215 821.339 198.314 821.936 198.511 822.464C198.708 822.987 199.007 823.397 199.407 823.696C199.807 823.995 200.314 824.144 200.927 824.144ZM205.363 825L209.011 820.68L205.515 816.36H206.843L210.251 820.624V816.36H211.339V820.624L214.747 816.36H216.067L212.571 820.68L216.219 825H214.851L211.339 820.736V825H210.251V820.736L206.731 825H205.363ZM217.487 825L217.495 816.36H218.679V820.52L222.535 816.36H224.103L220.055 820.68L224.631 825H222.919L218.679 820.84V825H217.487ZM227.905 825.24C227.254 825.24 226.707 825.123 226.265 824.888C225.827 824.653 225.499 824.341 225.281 823.952C225.062 823.563 224.953 823.139 224.953 822.68C224.953 822.211 225.046 821.811 225.233 821.48C225.425 821.144 225.683 820.869 226.009 820.656C226.339 820.443 226.721 820.28 227.153 820.168C227.59 820.061 228.073 819.968 228.601 819.888C229.134 819.803 229.654 819.731 230.161 819.672C230.673 819.608 231.121 819.547 231.505 819.488L231.089 819.744C231.105 818.891 230.939 818.259 230.593 817.848C230.246 817.437 229.643 817.232 228.785 817.232C228.193 817.232 227.691 817.365 227.281 817.632C226.875 817.899 226.59 818.32 226.424 818.896L225.281 818.56C225.478 817.787 225.875 817.187 226.473 816.76C227.07 816.333 227.846 816.12 228.801 816.12C229.59 816.12 230.259 816.269 230.809 816.568C231.363 816.861 231.755 817.288 231.985 817.848C232.091 818.099 232.161 818.379 232.193 818.688C232.225 818.997 232.241 819.312 232.241 819.632V825H231.193V822.832L231.497 822.96C231.203 823.701 230.747 824.267 230.129 824.656C229.51 825.045 228.769 825.24 227.905 825.24ZM228.041 824.224C228.59 824.224 229.07 824.125 229.481 823.928C229.891 823.731 230.222 823.461 230.473 823.12C230.723 822.773 230.886 822.384 230.961 821.952C231.025 821.675 231.059 821.371 231.065 821.04C231.07 820.704 231.073 820.453 231.073 820.288L231.521 820.52C231.121 820.573 230.686 820.627 230.217 820.68C229.753 820.733 229.294 820.795 228.841 820.864C228.393 820.933 227.987 821.016 227.625 821.112C227.379 821.181 227.142 821.28 226.913 821.408C226.683 821.531 226.494 821.696 226.345 821.904C226.201 822.112 226.129 822.371 226.129 822.68C226.129 822.931 226.19 823.173 226.312 823.408C226.441 823.643 226.643 823.837 226.921 823.992C227.203 824.147 227.577 824.224 228.041 824.224Z" fill="white"/>
<line x1="-6" y1="89" x2="387" y2="89" stroke="white" stroke-opacity="0.5" stroke-width="2"/>
<path d="M24.24 195V171.96H33.376C34.9333 171.96 36.208 172.275 37.2 172.904C38.2027 173.523 38.944 174.317 39.424 175.288C39.9147 176.259 40.16 177.261 40.16 178.296C40.16 179.565 39.856 180.643 39.248 181.528C38.6507 182.413 37.8347 183.011 36.8 183.32V182.52C38.2507 182.851 39.3493 183.539 40.096 184.584C40.8533 185.629 41.232 186.819 41.232 188.152C41.232 189.517 40.9707 190.712 40.448 191.736C39.9253 192.76 39.1467 193.56 38.112 194.136C37.088 194.712 35.8187 195 34.304 195H24.24ZM28.144 191.368H33.824C34.496 191.368 35.0987 191.235 35.632 190.968C36.1653 190.691 36.5813 190.307 36.88 189.816C37.1893 189.315 37.344 188.723 37.344 188.04C37.344 187.421 37.2107 186.867 36.944 186.376C36.6773 185.885 36.288 185.496 35.776 185.208C35.264 184.909 34.6507 184.76 33.936 184.76H28.144V191.368ZM28.144 181.16H33.328C33.8827 181.16 34.3787 181.053 34.816 180.84C35.2533 180.627 35.6 180.312 35.856 179.896C36.112 179.48 36.24 178.968 36.24 178.36C36.24 177.56 35.984 176.893 35.472 176.36C34.96 175.827 34.2453 175.56 33.328 175.56H28.144V181.16ZM42.5075 195L48.8275 186.264L42.6355 177.72H47.1795L51.0675 183.24L54.8915 177.72H59.4355L53.2435 186.264L59.5955 195H55.0515L51.0675 189.288L47.0515 195H42.5075ZM69.1533 195.48C67.4253 195.48 65.9159 195.091 64.6253 194.312C63.3346 193.533 62.3319 192.461 61.6173 191.096C60.9133 189.72 60.5613 188.141 60.5613 186.36C60.5613 184.547 60.9239 182.957 61.6493 181.592C62.3746 180.227 63.3826 179.16 64.6733 178.392C65.9639 177.624 67.4573 177.24 69.1533 177.24C70.8919 177.24 72.4066 177.629 73.6973 178.408C74.9879 179.187 75.9906 180.264 76.7053 181.64C77.4199 183.005 77.7773 184.579 77.7773 186.36C77.7773 188.152 77.4146 189.736 76.6893 191.112C75.9746 192.477 74.9719 193.549 73.6813 194.328C72.3906 195.096 70.8813 195.48 69.1533 195.48ZM69.1533 191.864C70.6893 191.864 71.8306 191.352 72.5773 190.328C73.3239 189.304 73.6973 187.981 73.6973 186.36C73.6973 184.685 73.3186 183.352 72.5613 182.36C71.8039 181.357 70.6679 180.856 69.1533 180.856C68.1186 180.856 67.2653 181.091 66.5933 181.56C65.9319 182.019 65.4413 182.664 65.1213 183.496C64.8013 184.317 64.6413 185.272 64.6413 186.36C64.6413 188.035 65.0199 189.373 65.7773 190.376C66.5453 191.368 67.6706 191.864 69.1533 191.864ZM80.0225 198.84V191.976C80.9612 191.976 81.6278 191.656 82.0225 191.016C82.4172 190.376 82.7318 189.267 82.9665 187.688C83.1158 186.749 83.2385 185.757 83.3345 184.712C83.4305 183.667 83.5105 182.563 83.5745 181.4C83.6492 180.237 83.7132 179.011 83.7665 177.72H96.6305V191.976H98.3745V198.84H94.7265V195H83.6545V198.84H80.0225ZM85.1905 191.976H92.7905V180.744H87.1425C87.1105 181.384 87.0732 182.04 87.0305 182.712C86.9878 183.373 86.9398 184.035 86.8865 184.696C86.8332 185.357 86.7745 185.992 86.7105 186.6C86.6572 187.197 86.5932 187.752 86.5185 188.264C86.4012 189.16 86.2572 189.896 86.0865 190.472C85.9158 191.048 85.6172 191.549 85.1905 191.976Z" fill="white"/>
<path d="M23.4 257V242.6H28.96C29.7667 242.6 30.47 242.767 31.07 243.1C31.67 243.433 32.1367 243.883 32.47 244.45C32.8033 245.01 32.97 245.63 32.97 246.31C32.97 247.083 32.7633 247.773 32.35 248.38C31.9367 248.98 31.3833 249.397 30.69 249.63L30.67 249.14C31.6033 249.407 32.3367 249.873 32.87 250.54C33.4033 251.207 33.67 252.013 33.67 252.96C33.67 253.793 33.4933 254.513 33.14 255.12C32.7867 255.72 32.29 256.183 31.65 256.51C31.01 256.837 30.2667 257 29.42 257H23.4ZM24.88 255.59H29.06C29.6467 255.59 30.1733 255.487 30.64 255.28C31.1067 255.067 31.4733 254.767 31.74 254.38C32.0133 253.993 32.15 253.527 32.15 252.98C32.15 252.447 32.0267 251.967 31.78 251.54C31.5333 251.113 31.1967 250.773 30.77 250.52C30.35 250.26 29.87 250.13 29.33 250.13H24.88V255.59ZM24.88 248.74H28.95C29.41 248.74 29.83 248.637 30.21 248.43C30.59 248.217 30.89 247.927 31.11 247.56C31.3367 247.193 31.45 246.77 31.45 246.29C31.45 245.61 31.2133 245.057 30.74 244.63C30.2733 244.203 29.6767 243.99 28.95 243.99H24.88V248.74ZM38.7556 257.3C37.9423 257.3 37.259 257.153 36.7056 256.86C36.159 256.567 35.749 256.177 35.4756 255.69C35.2023 255.203 35.0656 254.673 35.0656 254.1C35.0656 253.513 35.1823 253.013 35.4156 252.6C35.6556 252.18 35.979 251.837 36.3856 251.57C36.799 251.303 37.2756 251.1 37.8156 250.96C38.3623 250.827 38.9656 250.71 39.6256 250.61C40.2923 250.503 40.9423 250.413 41.5756 250.34C42.2156 250.26 42.7756 250.183 43.2556 250.11L42.7356 250.43C42.7556 249.363 42.549 248.573 42.1156 248.06C41.6823 247.547 40.929 247.29 39.8556 247.29C39.1156 247.29 38.489 247.457 37.9756 247.79C37.469 248.123 37.1123 248.65 36.9056 249.37L35.4756 248.95C35.7223 247.983 36.219 247.233 36.9656 246.7C37.7123 246.167 38.6823 245.9 39.8756 245.9C40.8623 245.9 41.699 246.087 42.3856 246.46C43.079 246.827 43.569 247.36 43.8556 248.06C43.989 248.373 44.0756 248.723 44.1156 249.11C44.1556 249.497 44.1756 249.89 44.1756 250.29V257H42.8656V254.29L43.2456 254.45C42.879 255.377 42.309 256.083 41.5356 256.57C40.7623 257.057 39.8356 257.3 38.7556 257.3ZM38.9256 256.03C39.6123 256.03 40.2123 255.907 40.7256 255.66C41.239 255.413 41.6523 255.077 41.9656 254.65C42.279 254.217 42.4823 253.73 42.5756 253.19C42.6556 252.843 42.699 252.463 42.7056 252.05C42.7123 251.63 42.7156 251.317 42.7156 251.11L43.2756 251.4C42.7756 251.467 42.2323 251.533 41.6456 251.6C41.0656 251.667 40.4923 251.743 39.9256 251.83C39.3656 251.917 38.859 252.02 38.4056 252.14C38.099 252.227 37.8023 252.35 37.5156 252.51C37.229 252.663 36.9923 252.87 36.8056 253.13C36.6256 253.39 36.5356 253.713 36.5356 254.1C36.5356 254.413 36.6123 254.717 36.7656 255.01C36.9256 255.303 37.179 255.547 37.5256 255.74C37.879 255.933 38.3456 256.03 38.9256 256.03ZM46.7689 257V246.2H48.1989V255.64H52.2489V246.2H53.6789V255.64H57.7189V246.2H59.1489V257H46.7689ZM70.5286 257.3C69.4753 257.3 68.5619 257.067 67.7886 256.6C67.0219 256.133 66.4253 255.477 65.9986 254.63C65.5719 253.783 65.3586 252.79 65.3586 251.65C65.3586 250.47 65.5686 249.45 65.9886 248.59C66.4086 247.73 66.9986 247.067 67.7586 246.6C68.5253 246.133 69.4286 245.9 70.4686 245.9C71.5353 245.9 72.4453 246.147 73.1986 246.64C73.9519 247.127 74.5219 247.827 74.9086 248.74C75.2953 249.653 75.4719 250.743 75.4386 252.01H73.9386V251.49C73.9119 250.09 73.6086 249.033 73.0286 248.32C72.4553 247.607 71.6153 247.25 70.5086 247.25C69.3486 247.25 68.4586 247.627 67.8386 248.38C67.2253 249.133 66.9186 250.207 66.9186 251.6C66.9186 252.96 67.2253 254.017 67.8386 254.77C68.4586 255.517 69.3353 255.89 70.4686 255.89C71.2419 255.89 71.9153 255.713 72.4886 255.36C73.0686 255 73.5253 254.483 73.8586 253.81L75.2286 254.34C74.8019 255.28 74.1719 256.01 73.3386 256.53C72.5119 257.043 71.5753 257.3 70.5286 257.3ZM66.3986 252.01V250.78H74.6486V252.01H66.3986ZM90.2448 257L90.2548 249.91C90.2548 249.077 90.0215 248.423 89.5548 247.95C89.0948 247.47 88.5082 247.23 87.7948 247.23C87.3882 247.23 86.9915 247.323 86.6048 247.51C86.2182 247.697 85.8982 247.997 85.6448 248.41C85.3982 248.823 85.2748 249.363 85.2748 250.03L84.4048 249.78C84.3848 249.007 84.5348 248.33 84.8548 247.75C85.1815 247.17 85.6282 246.72 86.1948 246.4C86.7682 246.073 87.4148 245.91 88.1348 245.91C89.2215 245.91 90.0915 246.247 90.7448 246.92C91.3982 247.587 91.7248 248.49 91.7248 249.63L91.7148 257H90.2448ZM77.3548 257V246.2H78.6748V248.86H78.8348V257H77.3548ZM83.8148 257L83.8248 250.01C83.8248 249.15 83.5948 248.473 83.1348 247.98C82.6815 247.48 82.0815 247.23 81.3348 247.23C80.5882 247.23 79.9848 247.487 79.5248 248C79.0648 248.507 78.8348 249.183 78.8348 250.03L77.9548 249.55C77.9548 248.857 78.1182 248.237 78.4448 247.69C78.7715 247.137 79.2182 246.703 79.7848 246.39C80.3515 246.07 80.9948 245.91 81.7148 245.91C82.4015 245.91 83.0115 246.057 83.5448 246.35C84.0848 246.643 84.5082 247.07 84.8148 247.63C85.1215 248.19 85.2748 248.87 85.2748 249.67L85.2648 257H83.8148ZM97.408 257.3C96.5946 257.3 95.9113 257.153 95.358 256.86C94.8113 256.567 94.4013 256.177 94.128 255.69C93.8546 255.203 93.718 254.673 93.718 254.1C93.718 253.513 93.8346 253.013 94.068 252.6C94.308 252.18 94.6313 251.837 95.038 251.57C95.4513 251.303 95.928 251.1 96.468 250.96C97.0146 250.827 97.618 250.71 98.278 250.61C98.9446 250.503 99.5946 250.413 100.228 250.34C100.868 250.26 101.428 250.183 101.908 250.11L101.388 250.43C101.408 249.363 101.201 248.573 100.768 248.06C100.335 247.547 99.5813 247.29 98.508 247.29C97.768 247.29 97.1413 247.457 96.628 247.79C96.1213 248.123 95.7646 248.65 95.558 249.37L94.128 248.95C94.3746 247.983 94.8713 247.233 95.618 246.7C96.3646 246.167 97.3346 245.9 98.528 245.9C99.5146 245.9 100.351 246.087 101.038 246.46C101.731 246.827 102.221 247.36 102.508 248.06C102.641 248.373 102.728 248.723 102.768 249.11C102.808 249.497 102.828 249.89 102.828 250.29V257H101.518V254.29L101.898 254.45C101.531 255.377 100.961 256.083 100.188 256.57C99.4146 257.057 98.488 257.3 97.408 257.3ZM97.578 256.03C98.2646 256.03 98.8646 255.907 99.378 255.66C99.8913 255.413 100.305 255.077 100.618 254.65C100.931 254.217 101.135 253.73 101.228 253.19C101.308 252.843 101.351 252.463 101.358 252.05C101.365 251.63 101.368 251.317 101.368 251.11L101.928 251.4C101.428 251.467 100.885 251.533 100.298 251.6C99.718 251.667 99.1446 251.743 98.578 251.83C98.018 251.917 97.5113 252.02 97.058 252.14C96.7513 252.227 96.4546 252.35 96.168 252.51C95.8813 252.663 95.6446 252.87 95.458 253.13C95.278 253.39 95.188 253.713 95.188 254.1C95.188 254.413 95.2646 254.717 95.418 255.01C95.578 255.303 95.8313 255.547 96.178 255.74C96.5313 255.933 96.998 256.03 97.578 256.03ZM105.631 244.15V242.5H107.101V244.15H105.631ZM105.631 257V246.2H107.101V257H105.631ZM110.299 257V242.3H111.769V257H110.299ZM115.567 255.4V253.69H117.277V255.4H115.567ZM115.577 249.51V247.8H117.287V249.51H115.577Z" fill="white"/>
<rect x="22.5" y="274.5" width="356" height="39" rx="9.5" fill="black" stroke="white"/>
<path d="M23.4 350V335.6H28.96C29.7667 335.6 30.47 335.767 31.07 336.1C31.67 336.433 32.1367 336.883 32.47 337.45C32.8033 338.01 32.97 338.63 32.97 339.31C32.97 340.083 32.7633 340.773 32.35 341.38C31.9367 341.98 31.3833 342.397 30.69 342.63L30.67 342.14C31.6033 342.407 32.3367 342.873 32.87 343.54C33.4033 344.207 33.67 345.013 33.67 345.96C33.67 346.793 33.4933 347.513 33.14 348.12C32.7867 348.72 32.29 349.183 31.65 349.51C31.01 349.837 30.2667 350 29.42 350H23.4ZM24.88 348.59H29.06C29.6467 348.59 30.1733 348.487 30.64 348.28C31.1067 348.067 31.4733 347.767 31.74 347.38C32.0133 346.993 32.15 346.527 32.15 345.98C32.15 345.447 32.0267 344.967 31.78 344.54C31.5333 344.113 31.1967 343.773 30.77 343.52C30.35 343.26 29.87 343.13 29.33 343.13H24.88V348.59ZM24.88 341.74H28.95C29.41 341.74 29.83 341.637 30.21 341.43C30.59 341.217 30.89 340.927 31.11 340.56C31.3367 340.193 31.45 339.77 31.45 339.29C31.45 338.61 31.2133 338.057 30.74 337.63C30.2733 337.203 29.6767 336.99 28.95 336.99H24.88V341.74ZM38.7556 350.3C37.9423 350.3 37.259 350.153 36.7056 349.86C36.159 349.567 35.749 349.177 35.4756 348.69C35.2023 348.203 35.0656 347.673 35.0656 347.1C35.0656 346.513 35.1823 346.013 35.4156 345.6C35.6556 345.18 35.979 344.837 36.3856 344.57C36.799 344.303 37.2756 344.1 37.8156 343.96C38.3623 343.827 38.9656 343.71 39.6256 343.61C40.2923 343.503 40.9423 343.413 41.5756 343.34C42.2156 343.26 42.7756 343.183 43.2556 343.11L42.7356 343.43C42.7556 342.363 42.549 341.573 42.1156 341.06C41.6823 340.547 40.929 340.29 39.8556 340.29C39.1156 340.29 38.489 340.457 37.9756 340.79C37.469 341.123 37.1123 341.65 36.9056 342.37L35.4756 341.95C35.7223 340.983 36.219 340.233 36.9656 339.7C37.7123 339.167 38.6823 338.9 39.8756 338.9C40.8623 338.9 41.699 339.087 42.3856 339.46C43.079 339.827 43.569 340.36 43.8556 341.06C43.989 341.373 44.0756 341.723 44.1156 342.11C44.1556 342.497 44.1756 342.89 44.1756 343.29V350H42.8656V347.29L43.2456 347.45C42.879 348.377 42.309 349.083 41.5356 349.57C40.7623 350.057 39.8356 350.3 38.7556 350.3ZM38.9256 349.03C39.6123 349.03 40.2123 348.907 40.7256 348.66C41.239 348.413 41.6523 348.077 41.9656 347.65C42.279 347.217 42.4823 346.73 42.5756 346.19C42.6556 345.843 42.699 345.463 42.7056 345.05C42.7123 344.63 42.7156 344.317 42.7156 344.11L43.2756 344.4C42.7756 344.467 42.2323 344.533 41.6456 344.6C41.0656 344.667 40.4923 344.743 39.9256 344.83C39.3656 344.917 38.859 345.02 38.4056 345.14C38.099 345.227 37.8023 345.35 37.5156 345.51C37.229 345.663 36.9923 345.87 36.8056 346.13C36.6256 346.39 36.5356 346.713 36.5356 347.1C36.5356 347.413 36.6123 347.717 36.7656 348.01C36.9256 348.303 37.179 348.547 37.5256 348.74C37.879 348.933 38.3456 349.03 38.9256 349.03ZM46.7689 350V339.2H48.1989V348.64H52.2489V339.2H53.6789V348.64H57.7189V339.2H59.1489V350H46.7689ZM65.9486 350V339.2H74.5386V350H73.0686V340.61H67.4186V350H65.9486ZM80.4353 350.3C79.622 350.3 78.9386 350.153 78.3853 349.86C77.8386 349.567 77.4286 349.177 77.1553 348.69C76.882 348.203 76.7453 347.673 76.7453 347.1C76.7453 346.513 76.862 346.013 77.0953 345.6C77.3353 345.18 77.6586 344.837 78.0653 344.57C78.4786 344.303 78.9553 344.1 79.4953 343.96C80.042 343.827 80.6453 343.71 81.3053 343.61C81.972 343.503 82.622 343.413 83.2553 343.34C83.8953 343.26 84.4553 343.183 84.9353 343.11L84.4153 343.43C84.4353 342.363 84.2286 341.573 83.7953 341.06C83.362 340.547 82.6086 340.29 81.5353 340.29C80.7953 340.29 80.1686 340.457 79.6553 340.79C79.1486 341.123 78.792 341.65 78.5853 342.37L77.1553 341.95C77.402 340.983 77.8986 340.233 78.6453 339.7C79.392 339.167 80.362 338.9 81.5553 338.9C82.542 338.9 83.3786 339.087 84.0653 339.46C84.7586 339.827 85.2486 340.36 85.5353 341.06C85.6686 341.373 85.7553 341.723 85.7953 342.11C85.8353 342.497 85.8553 342.89 85.8553 343.29V350H84.5453V347.29L84.9253 347.45C84.5586 348.377 83.9886 349.083 83.2153 349.57C82.442 350.057 81.5153 350.3 80.4353 350.3ZM80.6053 349.03C81.292 349.03 81.892 348.907 82.4053 348.66C82.9186 348.413 83.332 348.077 83.6453 347.65C83.9586 347.217 84.162 346.73 84.2553 346.19C84.3353 345.843 84.3786 345.463 84.3853 345.05C84.392 344.63 84.3953 344.317 84.3953 344.11L84.9553 344.4C84.4553 344.467 83.912 344.533 83.3253 344.6C82.7453 344.667 82.172 344.743 81.6053 344.83C81.0453 344.917 80.5386 345.02 80.0853 345.14C79.7786 345.227 79.482 345.35 79.1953 345.51C78.9086 345.663 78.672 345.87 78.4853 346.13C78.3053 346.39 78.2153 346.713 78.2153 347.1C78.2153 347.413 78.292 347.717 78.4453 348.01C78.6053 348.303 78.8586 348.547 79.2053 348.74C79.5586 348.933 80.0253 349.03 80.6053 349.03ZM93.3086 350.3C92.3153 350.3 91.4753 350.05 90.7886 349.55C90.1019 349.043 89.5819 348.36 89.2286 347.5C88.8753 346.633 88.6986 345.663 88.6986 344.59C88.6986 343.497 88.8753 342.523 89.2286 341.67C89.5886 340.81 90.1153 340.133 90.8086 339.64C91.5019 339.147 92.3553 338.9 93.3686 338.9C94.3553 338.9 95.2019 339.15 95.9086 339.65C96.6153 340.15 97.1553 340.83 97.5286 341.69C97.9086 342.55 98.0986 343.517 98.0986 344.59C98.0986 345.67 97.9086 346.64 97.5286 347.5C97.1486 348.36 96.6019 349.043 95.8886 349.55C95.1753 350.05 94.3153 350.3 93.3086 350.3ZM88.4486 354.8V339.2H89.7686V347.33H89.9286V354.8H88.4486ZM93.1586 348.93C93.9119 348.93 94.5386 348.74 95.0386 348.36C95.5386 347.98 95.9119 347.463 96.1586 346.81C96.4119 346.15 96.5386 345.41 96.5386 344.59C96.5386 343.777 96.4153 343.043 96.1686 342.39C95.9219 341.737 95.5453 341.22 95.0386 340.84C94.5386 340.46 93.9019 340.27 93.1286 340.27C92.3753 340.27 91.7486 340.453 91.2486 340.82C90.7553 341.187 90.3853 341.697 90.1386 342.35C89.8919 342.997 89.7686 343.743 89.7686 344.59C89.7686 345.423 89.8919 346.17 90.1386 346.83C90.3853 347.483 90.7586 347.997 91.2586 348.37C91.7586 348.743 92.3919 348.93 93.1586 348.93ZM104.805 350.3C103.731 350.3 102.815 350.057 102.055 349.57C101.295 349.083 100.711 348.41 100.305 347.55C99.8979 346.69 99.6945 345.703 99.6945 344.59C99.6945 343.457 99.9012 342.463 100.315 341.61C100.728 340.757 101.315 340.093 102.075 339.62C102.841 339.14 103.751 338.9 104.805 338.9C105.885 338.9 106.805 339.143 107.565 339.63C108.331 340.11 108.915 340.78 109.315 341.64C109.721 342.493 109.925 343.477 109.925 344.59C109.925 345.723 109.721 346.72 109.315 347.58C108.908 348.433 108.321 349.1 107.555 349.58C106.788 350.06 105.871 350.3 104.805 350.3ZM104.805 348.89C106.005 348.89 106.898 348.493 107.485 347.7C108.071 346.9 108.365 345.863 108.365 344.59C108.365 343.283 108.068 342.243 107.475 341.47C106.888 340.697 105.998 340.31 104.805 340.31C103.998 340.31 103.331 340.493 102.805 340.86C102.285 341.22 101.895 341.723 101.635 342.37C101.381 343.01 101.255 343.75 101.255 344.59C101.255 345.89 101.555 346.933 102.155 347.72C102.755 348.5 103.638 348.89 104.805 348.89ZM111.13 350V348.71C111.53 348.783 111.834 348.767 112.04 348.66C112.254 348.547 112.41 348.36 112.51 348.1C112.61 347.833 112.694 347.503 112.76 347.11C112.867 346.457 112.964 345.737 113.05 344.95C113.137 344.163 113.214 343.297 113.28 342.35C113.354 341.397 113.427 340.347 113.5 339.2H120.84V350H119.38V340.61H114.86C114.814 341.317 114.76 342.02 114.7 342.72C114.64 343.42 114.577 344.093 114.51 344.74C114.45 345.38 114.384 345.97 114.31 346.51C114.237 347.05 114.16 347.517 114.08 347.91C113.96 348.503 113.8 348.977 113.6 349.33C113.407 349.683 113.117 349.917 112.73 350.03C112.344 350.143 111.81 350.133 111.13 350ZM123.644 350L123.624 339.2H125.104V343.27H127.634C127.948 343.27 128.254 343.277 128.554 343.29C128.861 343.303 129.131 343.33 129.364 343.37C129.898 343.47 130.371 343.647 130.784 343.9C131.204 344.153 131.531 344.503 131.764 344.95C132.004 345.397 132.124 345.957 132.124 346.63C132.124 347.557 131.884 348.287 131.404 348.82C130.931 349.353 130.331 349.7 129.604 349.86C129.331 349.92 129.034 349.96 128.714 349.98C128.394 349.993 128.078 350 127.764 350H123.644ZM125.104 348.74H127.704C127.931 348.74 128.184 348.733 128.464 348.72C128.744 348.707 128.991 348.67 129.204 348.61C129.558 348.51 129.878 348.31 130.164 348.01C130.458 347.703 130.604 347.243 130.604 346.63C130.604 346.023 130.464 345.567 130.184 345.26C129.904 344.947 129.531 344.74 129.064 344.64C128.858 344.593 128.634 344.563 128.394 344.55C128.154 344.537 127.924 344.53 127.704 344.53H125.104V348.74ZM135.118 348.4V346.69H136.828V348.4H135.118ZM135.128 342.51V340.8H136.838V342.51H135.128Z" fill="white"/>
<rect x="22.5" y="367.5" width="356" height="39" rx="9.5" fill="black" stroke="white"/>
<rect x="22.5" y="460.5" width="356" height="39" rx="9.5" fill="black" stroke="#2BA600"/>
<path d="M174.4 488V473.6H179.96C180.767 473.6 181.47 473.767 182.07 474.1C182.67 474.433 183.137 474.883 183.47 475.45C183.803 476.01 183.97 476.63 183.97 477.31C183.97 478.083 183.763 478.773 183.35 479.38C182.937 479.98 182.383 480.397 181.69 480.63L181.67 480.14C182.603 480.407 183.337 480.873 183.87 481.54C184.403 482.207 184.67 483.013 184.67 483.96C184.67 484.793 184.493 485.513 184.14 486.12C183.787 486.72 183.29 487.183 182.65 487.51C182.01 487.837 181.267 488 180.42 488H174.4ZM175.88 486.59H180.06C180.647 486.59 181.173 486.487 181.64 486.28C182.107 486.067 182.473 485.767 182.74 485.38C183.013 484.993 183.15 484.527 183.15 483.98C183.15 483.447 183.027 482.967 182.78 482.54C182.533 482.113 182.197 481.773 181.77 481.52C181.35 481.26 180.87 481.13 180.33 481.13H175.88V486.59ZM175.88 479.74H179.95C180.41 479.74 180.83 479.637 181.21 479.43C181.59 479.217 181.89 478.927 182.11 478.56C182.337 478.193 182.45 477.77 182.45 477.29C182.45 476.61 182.213 476.057 181.74 475.63C181.273 475.203 180.677 474.99 179.95 474.99H175.88V479.74ZM185.466 488L189.686 482.54L185.556 477.2H187.316L190.546 481.41L193.746 477.2H195.506L191.376 482.54L195.606 488H193.836L190.546 483.67L187.236 488H185.466ZM201.332 488.3C200.259 488.3 199.342 488.057 198.582 487.57C197.822 487.083 197.239 486.41 196.832 485.55C196.425 484.69 196.222 483.703 196.222 482.59C196.222 481.457 196.429 480.463 196.842 479.61C197.255 478.757 197.842 478.093 198.602 477.62C199.369 477.14 200.279 476.9 201.332 476.9C202.412 476.9 203.332 477.143 204.092 477.63C204.859 478.11 205.442 478.78 205.842 479.64C206.249 480.493 206.452 481.477 206.452 482.59C206.452 483.723 206.249 484.72 205.842 485.58C205.435 486.433 204.849 487.1 204.082 487.58C203.315 488.06 202.399 488.3 201.332 488.3ZM201.332 486.89C202.532 486.89 203.425 486.493 204.012 485.7C204.599 484.9 204.892 483.863 204.892 482.59C204.892 481.283 204.595 480.243 204.002 479.47C203.415 478.697 202.525 478.31 201.332 478.31C200.525 478.31 199.859 478.493 199.332 478.86C198.812 479.22 198.422 479.723 198.162 480.37C197.909 481.01 197.782 481.75 197.782 482.59C197.782 483.89 198.082 484.933 198.682 485.72C199.282 486.5 200.165 486.89 201.332 486.89ZM207.858 490.4V486.74C208.471 486.74 208.911 486.543 209.178 486.15C209.444 485.75 209.661 485.113 209.828 484.24C209.941 483.673 210.034 483.063 210.108 482.41C210.181 481.757 210.244 481.01 210.298 480.17C210.351 479.323 210.401 478.333 210.448 477.2H217.588V486.74H218.628V490.4H217.208V488H209.268V490.4H207.858ZM210.348 486.74H216.128V478.46H211.808C211.788 478.967 211.758 479.503 211.718 480.07C211.684 480.637 211.641 481.203 211.588 481.77C211.541 482.337 211.484 482.87 211.418 483.37C211.358 483.863 211.284 484.297 211.198 484.67C211.098 485.15 210.988 485.56 210.868 485.9C210.754 486.24 210.581 486.52 210.348 486.74Z" fill="white"/>
<g opacity="0.5">
<path d="M105.98 528V517.92H107.009V522.463H112.581V517.92H113.603V528H112.581V523.45H107.009V528H105.98ZM118.763 528.21C118.026 528.21 117.386 528.047 116.845 527.72C116.308 527.393 115.891 526.934 115.592 526.341C115.293 525.748 115.144 525.053 115.144 524.255C115.144 523.429 115.291 522.715 115.585 522.113C115.879 521.511 116.292 521.047 116.824 520.72C117.361 520.393 117.993 520.23 118.721 520.23C119.468 520.23 120.105 520.403 120.632 520.748C121.159 521.089 121.558 521.579 121.829 522.218C122.1 522.857 122.223 523.62 122.2 524.507H121.15V524.143C121.131 523.163 120.919 522.423 120.513 521.924C120.112 521.425 119.524 521.175 118.749 521.175C117.937 521.175 117.314 521.439 116.88 521.966C116.451 522.493 116.236 523.245 116.236 524.22C116.236 525.172 116.451 525.912 116.88 526.439C117.314 526.962 117.928 527.223 118.721 527.223C119.262 527.223 119.734 527.099 120.135 526.852C120.541 526.6 120.861 526.238 121.094 525.767L122.053 526.138C121.754 526.796 121.313 527.307 120.73 527.671C120.151 528.03 119.496 528.21 118.763 528.21ZM115.872 524.507V523.646H121.647V524.507H115.872ZM125.709 528V521.392H123.028V520.44H129.419V521.392H126.738V528H125.709ZM135.719 528.21C135.15 528.21 134.672 528.107 134.284 527.902C133.902 527.697 133.615 527.424 133.423 527.083C133.232 526.742 133.136 526.371 133.136 525.97C133.136 525.559 133.218 525.209 133.381 524.92C133.549 524.626 133.776 524.386 134.06 524.199C134.35 524.012 134.683 523.87 135.061 523.772C135.444 523.679 135.866 523.597 136.328 523.527C136.795 523.452 137.25 523.389 137.693 523.338C138.141 523.282 138.533 523.228 138.869 523.177L138.505 523.401C138.519 522.654 138.375 522.101 138.071 521.742C137.768 521.383 137.241 521.203 136.489 521.203C135.971 521.203 135.533 521.32 135.173 521.553C134.819 521.786 134.569 522.155 134.424 522.659L133.423 522.365C133.596 521.688 133.944 521.163 134.466 520.79C134.989 520.417 135.668 520.23 136.503 520.23C137.194 520.23 137.78 520.361 138.26 520.622C138.746 520.879 139.089 521.252 139.289 521.742C139.383 521.961 139.443 522.206 139.471 522.477C139.499 522.748 139.513 523.023 139.513 523.303V528H138.596V526.103L138.862 526.215C138.606 526.864 138.207 527.358 137.665 527.699C137.124 528.04 136.475 528.21 135.719 528.21ZM135.838 527.321C136.319 527.321 136.739 527.235 137.098 527.062C137.458 526.889 137.747 526.654 137.966 526.355C138.186 526.052 138.328 525.711 138.393 525.333C138.449 525.09 138.48 524.824 138.484 524.535C138.489 524.241 138.491 524.022 138.491 523.877L138.883 524.08C138.533 524.127 138.153 524.173 137.742 524.22C137.336 524.267 136.935 524.32 136.538 524.381C136.146 524.442 135.792 524.514 135.474 524.598C135.26 524.659 135.052 524.745 134.851 524.857C134.651 524.964 134.485 525.109 134.354 525.291C134.228 525.473 134.165 525.699 134.165 525.97C134.165 526.189 134.219 526.402 134.326 526.607C134.438 526.812 134.616 526.983 134.858 527.118C135.106 527.253 135.432 527.321 135.838 527.321ZM141.328 528L141.335 520.44H142.371V524.08L145.745 520.44H147.117L143.575 524.22L147.579 528H146.081L142.371 524.36V528H141.328ZM148.274 528L148.281 520.44H149.317V524.08L152.691 520.44H154.063L150.521 524.22L154.525 528H153.027L149.317 524.36V528H148.274ZM157.389 528.21C156.82 528.21 156.341 528.107 155.954 527.902C155.571 527.697 155.284 527.424 155.093 527.083C154.902 526.742 154.806 526.371 154.806 525.97C154.806 525.559 154.888 525.209 155.051 524.92C155.219 524.626 155.445 524.386 155.73 524.199C156.019 524.012 156.353 523.87 156.731 523.772C157.114 523.679 157.536 523.597 157.998 523.527C158.465 523.452 158.92 523.389 159.363 523.338C159.811 523.282 160.203 523.228 160.539 523.177L160.175 523.401C160.189 522.654 160.044 522.101 159.741 521.742C159.438 521.383 158.91 521.203 158.159 521.203C157.641 521.203 157.202 521.32 156.843 521.553C156.488 521.786 156.239 522.155 156.094 522.659L155.093 522.365C155.266 521.688 155.613 521.163 156.136 520.79C156.659 520.417 157.338 520.23 158.173 520.23C158.864 520.23 159.449 520.361 159.93 520.622C160.415 520.879 160.758 521.252 160.959 521.742C161.052 521.961 161.113 522.206 161.141 522.477C161.169 522.748 161.183 523.023 161.183 523.303V528H160.266V526.103L160.532 526.215C160.275 526.864 159.876 527.358 159.335 527.699C158.794 528.04 158.145 528.21 157.389 528.21ZM157.508 527.321C157.989 527.321 158.409 527.235 158.768 527.062C159.127 526.889 159.417 526.654 159.636 526.355C159.855 526.052 159.998 525.711 160.063 525.333C160.119 525.09 160.149 524.824 160.154 524.535C160.159 524.241 160.161 524.022 160.161 523.877L160.553 524.08C160.203 524.127 159.823 524.173 159.412 524.22C159.006 524.267 158.605 524.32 158.208 524.381C157.816 524.442 157.461 524.514 157.144 524.598C156.929 524.659 156.722 524.745 156.521 524.857C156.32 524.964 156.155 525.109 156.024 525.291C155.898 525.473 155.835 525.699 155.835 525.97C155.835 526.189 155.889 526.402 155.996 526.607C156.108 526.812 156.285 526.983 156.528 527.118C156.775 527.253 157.102 527.321 157.508 527.321ZM163.66 531.36L165.123 527.391L165.144 528.567L161.833 520.44H162.925L165.641 527.237H165.193L167.699 520.44H168.749L164.689 531.36H163.66ZM169.957 528V520.44H170.986V523.723H175.249V520.44H176.278V528H175.249V524.71H170.986V528H169.957ZM180.287 528V521.392H177.606V520.44H183.997V521.392H181.316V528H180.287ZM187.207 528.21C186.638 528.21 186.16 528.107 185.772 527.902C185.39 527.697 185.103 527.424 184.911 527.083C184.72 526.742 184.624 526.371 184.624 525.97C184.624 525.559 184.706 525.209 184.869 524.92C185.037 524.626 185.264 524.386 185.548 524.199C185.838 524.012 186.171 523.87 186.549 523.772C186.932 523.679 187.354 523.597 187.816 523.527C188.283 523.452 188.738 523.389 189.181 523.338C189.629 523.282 190.021 523.228 190.357 523.177L189.993 523.401C190.007 522.654 189.863 522.101 189.559 521.742C189.256 521.383 188.729 521.203 187.977 521.203C187.459 521.203 187.021 521.32 186.661 521.553C186.307 521.786 186.057 522.155 185.912 522.659L184.911 522.365C185.084 521.688 185.432 521.163 185.954 520.79C186.477 520.417 187.156 520.23 187.991 520.23C188.682 520.23 189.268 520.361 189.748 520.622C190.234 520.879 190.577 521.252 190.777 521.742C190.871 521.961 190.931 522.206 190.959 522.477C190.987 522.748 191.001 523.023 191.001 523.303V528H190.084V526.103L190.35 526.215C190.094 526.864 189.695 527.358 189.153 527.699C188.612 528.04 187.963 528.21 187.207 528.21ZM187.326 527.321C187.807 527.321 188.227 527.235 188.586 527.062C188.946 526.889 189.235 526.654 189.454 526.355C189.674 526.052 189.816 525.711 189.881 525.333C189.937 525.09 189.968 524.824 189.972 524.535C189.977 524.241 189.979 524.022 189.979 523.877L190.371 524.08C190.021 524.127 189.641 524.173 189.23 524.22C188.824 524.267 188.423 524.32 188.026 524.381C187.634 524.442 187.28 524.514 186.962 524.598C186.748 524.659 186.54 524.745 186.339 524.857C186.139 524.964 185.973 525.109 185.842 525.291C185.716 525.473 185.653 525.699 185.653 525.97C185.653 526.189 185.707 526.402 185.814 526.607C185.926 526.812 186.104 526.983 186.346 527.118C186.594 527.253 186.92 527.321 187.326 527.321ZM194.798 525.249C194.798 524.885 194.814 524.565 194.847 524.29C194.884 524.01 194.977 523.73 195.127 523.45C195.267 523.184 195.439 522.965 195.645 522.792C195.85 522.615 196.065 522.449 196.289 522.295C196.513 522.136 196.725 521.95 196.926 521.735C197.108 521.525 197.229 521.313 197.29 521.098C197.35 520.883 197.381 520.657 197.381 520.419C197.381 520.181 197.35 519.969 197.29 519.782C197.234 519.595 197.145 519.434 197.024 519.299C196.837 519.07 196.608 518.914 196.338 518.83C196.067 518.746 195.785 518.704 195.491 518.704C195.201 518.704 194.931 518.746 194.679 518.83C194.431 518.909 194.226 519.033 194.063 519.201C193.904 519.35 193.787 519.53 193.713 519.74C193.643 519.95 193.608 520.172 193.608 520.405H192.544C192.562 520.036 192.642 519.677 192.782 519.327C192.926 518.972 193.136 518.676 193.412 518.438C193.687 518.186 194.007 518.004 194.371 517.892C194.739 517.775 195.11 517.717 195.484 517.717C195.941 517.717 196.375 517.787 196.786 517.927C197.196 518.062 197.542 518.291 197.822 518.613C198.046 518.851 198.209 519.124 198.312 519.432C198.419 519.735 198.473 520.06 198.473 520.405C198.473 520.792 198.4 521.156 198.256 521.497C198.111 521.838 197.908 522.141 197.647 522.407C197.488 522.58 197.308 522.741 197.108 522.89C196.907 523.035 196.713 523.186 196.527 523.345C196.345 523.499 196.205 523.667 196.107 523.849C195.985 524.073 195.918 524.285 195.904 524.486C195.894 524.687 195.89 524.941 195.89 525.249H194.798ZM194.805 528V526.628H195.89V528H194.805ZM202.955 528V517.92H206.847C206.945 517.92 207.054 517.925 207.176 517.934C207.302 517.939 207.428 517.953 207.554 517.976C208.081 518.055 208.527 518.24 208.891 518.529C209.259 518.814 209.537 519.173 209.724 519.607C209.915 520.041 210.011 520.522 210.011 521.049C210.011 521.572 209.915 522.05 209.724 522.484C209.532 522.918 209.252 523.28 208.884 523.569C208.52 523.854 208.076 524.036 207.554 524.115C207.428 524.134 207.302 524.148 207.176 524.157C207.054 524.166 206.945 524.171 206.847 524.171H203.984V528H202.955ZM203.984 523.191H206.819C206.903 523.191 207.001 523.186 207.113 523.177C207.225 523.168 207.334 523.151 207.442 523.128C207.787 523.053 208.069 522.911 208.289 522.701C208.513 522.491 208.678 522.241 208.786 521.952C208.898 521.663 208.954 521.362 208.954 521.049C208.954 520.736 208.898 520.435 208.786 520.146C208.678 519.852 208.513 519.6 208.289 519.39C208.069 519.18 207.787 519.038 207.442 518.963C207.334 518.94 207.225 518.926 207.113 518.921C207.001 518.912 206.903 518.907 206.819 518.907H203.984V523.191ZM214.603 528.21C213.865 528.21 213.226 528.047 212.685 527.72C212.148 527.393 211.73 526.934 211.432 526.341C211.133 525.748 210.984 525.053 210.984 524.255C210.984 523.429 211.131 522.715 211.425 522.113C211.719 521.511 212.132 521.047 212.664 520.72C213.2 520.393 213.833 520.23 214.561 520.23C215.307 520.23 215.944 520.403 216.472 520.748C216.999 521.089 217.398 521.579 217.669 522.218C217.939 522.857 218.063 523.62 218.04 524.507H216.99V524.143C216.971 523.163 216.759 522.423 216.353 521.924C215.951 521.425 215.363 521.175 214.589 521.175C213.777 521.175 213.154 521.439 212.72 521.966C212.29 522.493 212.076 523.245 212.076 524.22C212.076 525.172 212.29 525.912 212.72 526.439C213.154 526.962 213.767 527.223 214.561 527.223C215.102 527.223 215.573 527.099 215.975 526.852C216.381 526.6 216.7 526.238 216.934 525.767L217.893 526.138C217.594 526.796 217.153 527.307 216.57 527.671C215.991 528.03 215.335 528.21 214.603 528.21ZM211.712 524.507V523.646H217.487V524.507H211.712ZM219.593 528V520.44H224.773V521.427H220.622V528H219.593ZM232.107 520.44V528H231.106V522.113L226.962 528H226.094V520.44H227.095V526.278L231.246 520.44H232.107ZM237.208 528.21C236.447 528.21 235.803 528.04 235.276 527.699C234.748 527.358 234.347 526.889 234.072 526.292C233.801 525.69 233.661 524.999 233.652 524.22C233.661 523.427 233.806 522.731 234.086 522.134C234.366 521.532 234.769 521.065 235.297 520.734C235.824 520.398 236.463 520.23 237.215 520.23C237.98 520.23 238.645 520.417 239.21 520.79C239.779 521.163 240.169 521.674 240.379 522.323L239.371 522.645C239.193 522.192 238.911 521.842 238.524 521.595C238.141 521.343 237.702 521.217 237.208 521.217C236.652 521.217 236.193 521.345 235.829 521.602C235.465 521.854 235.194 522.206 235.017 522.659C234.839 523.112 234.748 523.632 234.744 524.22C234.753 525.125 234.963 525.853 235.374 526.404C235.784 526.95 236.396 527.223 237.208 527.223C237.721 527.223 238.157 527.106 238.517 526.873C238.881 526.635 239.156 526.29 239.343 525.837L240.379 526.145C240.099 526.817 239.688 527.33 239.147 527.685C238.605 528.035 237.959 528.21 237.208 528.21ZM243.697 528V521.392H241.016V520.44H247.407V521.392H244.726V528H243.697ZM252.137 528.21C251.441 528.21 250.853 528.035 250.373 527.685C249.892 527.33 249.528 526.852 249.281 526.25C249.033 525.643 248.91 524.964 248.91 524.213C248.91 523.448 249.033 522.766 249.281 522.169C249.533 521.567 249.901 521.093 250.387 520.748C250.872 520.403 251.469 520.23 252.179 520.23C252.869 520.23 253.462 520.405 253.957 520.755C254.451 521.105 254.829 521.581 255.091 522.183C255.357 522.785 255.49 523.462 255.49 524.213C255.49 524.969 255.357 525.648 255.091 526.25C254.825 526.852 254.442 527.33 253.943 527.685C253.443 528.035 252.841 528.21 252.137 528.21ZM248.735 531.36V520.44H249.659V526.131H249.771V531.36H248.735ZM252.032 527.251C252.559 527.251 252.998 527.118 253.348 526.852C253.698 526.586 253.959 526.224 254.132 525.767C254.309 525.305 254.398 524.787 254.398 524.213C254.398 523.644 254.311 523.13 254.139 522.673C253.966 522.216 253.702 521.854 253.348 521.588C252.998 521.322 252.552 521.189 252.011 521.189C251.483 521.189 251.045 521.317 250.695 521.574C250.349 521.831 250.09 522.188 249.918 522.645C249.745 523.098 249.659 523.62 249.659 524.213C249.659 524.796 249.745 525.319 249.918 525.781C250.09 526.238 250.352 526.598 250.702 526.859C251.052 527.12 251.495 527.251 252.032 527.251ZM259.19 528.21C258.621 528.21 258.142 528.107 257.755 527.902C257.372 527.697 257.085 527.424 256.894 527.083C256.703 526.742 256.607 526.371 256.607 525.97C256.607 525.559 256.689 525.209 256.852 524.92C257.02 524.626 257.246 524.386 257.531 524.199C257.82 524.012 258.154 523.87 258.532 523.772C258.915 523.679 259.337 523.597 259.799 523.527C260.266 523.452 260.721 523.389 261.164 523.338C261.612 523.282 262.004 523.228 262.34 523.177L261.976 523.401C261.99 522.654 261.845 522.101 261.542 521.742C261.239 521.383 260.711 521.203 259.96 521.203C259.442 521.203 259.003 521.32 258.644 521.553C258.289 521.786 258.04 522.155 257.895 522.659L256.894 522.365C257.067 521.688 257.414 521.163 257.937 520.79C258.46 520.417 259.139 520.23 259.974 520.23C260.665 520.23 261.25 520.361 261.731 520.622C262.216 520.879 262.559 521.252 262.76 521.742C262.853 521.961 262.914 522.206 262.942 522.477C262.97 522.748 262.984 523.023 262.984 523.303V528H262.067V526.103L262.333 526.215C262.076 526.864 261.677 527.358 261.136 527.699C260.595 528.04 259.946 528.21 259.19 528.21ZM259.309 527.321C259.79 527.321 260.21 527.235 260.569 527.062C260.928 526.889 261.218 526.654 261.437 526.355C261.656 526.052 261.799 525.711 261.864 525.333C261.92 525.09 261.95 524.824 261.955 524.535C261.96 524.241 261.962 524.022 261.962 523.877L262.354 524.08C262.004 524.127 261.624 524.173 261.213 524.22C260.807 524.267 260.406 524.32 260.009 524.381C259.617 524.442 259.262 524.514 258.945 524.598C258.73 524.659 258.523 524.745 258.322 524.857C258.121 524.964 257.956 525.109 257.825 525.291C257.699 525.473 257.636 525.699 257.636 525.97C257.636 526.189 257.69 526.402 257.797 526.607C257.909 526.812 258.086 526.983 258.329 527.118C258.576 527.253 258.903 527.321 259.309 527.321ZM271.302 529.309V528H264.799V520.44H265.828V527.013H269.783V520.44H270.812V527.048H272.331V529.309H271.302ZM279.453 520.44V528H278.452V522.113L274.308 528H273.44V520.44H274.441V526.278L278.592 520.44H279.453ZM286.157 528V525.151H284.392C284.187 525.151 283.975 525.144 283.756 525.13C283.541 525.111 283.34 525.086 283.154 525.053C282.622 524.95 282.169 524.717 281.796 524.353C281.427 523.984 281.243 523.476 281.243 522.827C281.243 522.192 281.415 521.684 281.761 521.301C282.106 520.914 282.524 520.662 283.014 520.545C283.238 520.494 283.464 520.463 283.693 520.454C283.926 520.445 284.127 520.44 284.294 520.44H287.186L287.193 528H286.157ZM280.998 528L283.105 524.829H284.246L282.125 528H280.998ZM284.337 524.269H286.157V521.322H284.337C284.225 521.322 284.068 521.327 283.868 521.336C283.667 521.345 283.478 521.376 283.301 521.427C283.147 521.474 282.993 521.555 282.839 521.672C282.689 521.784 282.563 521.936 282.461 522.127C282.358 522.314 282.307 522.542 282.307 522.813C282.307 523.191 282.409 523.494 282.615 523.723C282.825 523.947 283.086 524.101 283.399 524.185C283.567 524.222 283.735 524.246 283.903 524.255C284.071 524.264 284.215 524.269 284.337 524.269Z" fill="white"/>
<path d="M201.975 528.875H248.384V529.225H201.975V528.875ZM250.123 528.875H270.955V529.225H250.123V528.875ZM272.678 528.875H288.173V529.225H272.678V528.875Z" fill="white"/>
</g>
</g>
<defs>
<clipPath id="clip0_1316_225">
<rect width="393" height="852" fill="white"/>
</clipPath>
</defs>
</svg>
