<svg width="393" height="852" viewBox="0 0 393 852" fill="none" xmlns="http://www.w3.org/2000/svg">
<rect width="393" height="852" fill="black"/>
<rect width="393" height="90" fill="black"/>
<path d="M132.5 27L151.986 60.75H113.014L132.5 27Z" fill="white"/>
<path d="M165.224 34.932C167.768 34.932 169.568 35.592 170.624 36.912C171.68 38.208 172.208 39.9 172.208 41.988C172.208 44.076 171.68 45.768 170.624 47.064C169.568 48.36 167.768 49.008 165.224 49.008H161.624V57H157.952V34.932H165.224ZM164.72 47.712C166.04 47.712 167 47.208 167.6 46.2C168.224 45.192 168.536 43.788 168.536 41.988C168.536 40.212 168.224 38.82 167.6 37.812C167 36.804 166.04 36.3 164.72 36.3H161.624V47.712H164.72ZM191.36 57H187.4L184.304 49.332C184.016 48.636 183.656 48.18 183.224 47.964C182.816 47.724 182.18 47.604 181.316 47.604H179.624V57H175.952V34.932H183.332C185.948 34.932 187.784 35.58 188.84 36.876C189.896 38.148 190.424 39.696 190.424 41.52C190.424 42.864 190.1 44.064 189.452 45.12C188.828 46.152 187.736 46.872 186.176 47.28C187.04 47.592 187.664 48.168 188.048 49.008L191.36 57ZM182.936 46.272C184.232 46.272 185.192 45.816 185.816 44.904C186.44 43.968 186.752 42.84 186.752 41.52C186.752 40.056 186.44 38.82 185.816 37.812C185.192 36.804 184.232 36.3 182.936 36.3H179.624V46.272H182.936ZM199.452 57H195.78V34.932H199.452V57ZM218.591 55.164V57H203.147V54.66L214.451 36.768H203.759V34.932H218.303V37.2L206.891 55.164H218.591ZM239.857 37.128L233.845 56.928V57H230.569L224.557 36.948L224.053 57H221.893L222.505 34.932H227.293L232.765 53.364L238.345 34.932H243.313L243.961 57H240.325L239.857 37.128Z" fill="white"/>
<path d="M150.36 192V163.752L143.88 167.712V161.328L150.36 157.44H156.264V192H150.36ZM164.447 191.952V186.912L179.231 173.736C180.383 172.712 181.183 171.744 181.631 170.832C182.079 169.92 182.303 169.04 182.303 168.192C182.303 167.04 182.055 166.016 181.559 165.12C181.063 164.208 180.375 163.488 179.495 162.96C178.631 162.432 177.631 162.168 176.495 162.168C175.295 162.168 174.231 162.448 173.303 163.008C172.391 163.552 171.679 164.28 171.167 165.192C170.655 166.104 170.415 167.088 170.447 168.144H164.495C164.495 165.84 165.007 163.832 166.031 162.12C167.071 160.408 168.495 159.08 170.303 158.136C172.127 157.192 174.231 156.72 176.615 156.72C178.823 156.72 180.807 157.216 182.567 158.208C184.327 159.184 185.711 160.544 186.719 162.288C187.727 164.016 188.231 166.008 188.231 168.264C188.231 169.912 188.007 171.296 187.559 172.416C187.111 173.536 186.439 174.568 185.543 175.512C184.663 176.456 183.567 177.504 182.255 178.656L171.767 187.944L171.239 186.504H188.231V191.952H164.447ZM207.415 192V186.288H192.103V180.888L203.167 157.44H209.767L198.703 180.888H207.415V171.888H213.271V180.888H216.511V186.288H213.271V192H207.415ZM222.266 179.424V174.48H238.538C238.794 174.48 239.106 174.472 239.474 174.456C239.858 174.424 240.282 174.344 240.746 174.216C242.074 173.848 243.034 173.184 243.626 172.224C244.218 171.248 244.514 170.112 244.514 168.816C244.514 168.032 244.394 167.248 244.154 166.464C243.93 165.664 243.538 164.96 242.978 164.352C242.434 163.744 241.69 163.32 240.746 163.08C240.33 162.968 239.906 162.904 239.474 162.888C239.058 162.872 238.746 162.864 238.538 162.864H229.49V157.44H238.778C238.954 157.44 239.298 157.448 239.81 157.464C240.338 157.48 240.922 157.536 241.562 157.632C243.546 157.936 245.186 158.6 246.482 159.624C247.794 160.648 248.762 161.944 249.386 163.512C250.026 165.064 250.346 166.776 250.346 168.648C250.346 171.512 249.618 173.88 248.162 175.752C246.706 177.624 244.506 178.784 241.562 179.232C240.922 179.312 240.338 179.368 239.81 179.4C239.298 179.416 238.954 179.424 238.778 179.424H222.266ZM222.266 187.296V182.76H242.738V187.296H222.266ZM225.698 192V157.44H231.482V192H225.698Z" fill="white"/>
<rect x="16.5" y="300.5" width="360" height="38" rx="9.5" fill="black" stroke="white"/>
<path d="M46.061 325.21C45.0577 325.21 44.2107 324.988 43.52 324.545C42.8293 324.097 42.3067 323.479 41.952 322.69C41.5973 321.901 41.42 320.991 41.42 319.96C41.42 318.929 41.5973 318.019 41.952 317.23C42.3067 316.441 42.8293 315.825 43.52 315.382C44.2107 314.934 45.0577 314.71 46.061 314.71C47.2323 314.71 48.189 315.011 48.931 315.613C49.673 316.21 50.1817 317.013 50.457 318.021L49.407 318.294C49.1923 317.496 48.8073 316.864 48.252 316.397C47.6967 315.93 46.9663 315.697 46.061 315.697C45.2723 315.697 44.6167 315.877 44.094 316.236C43.5713 316.595 43.177 317.097 42.911 317.741C42.6497 318.38 42.5143 319.12 42.505 319.96C42.5003 320.8 42.6287 321.54 42.89 322.179C43.156 322.818 43.5527 323.32 44.08 323.684C44.612 324.043 45.2723 324.223 46.061 324.223C46.9663 324.223 47.6967 323.99 48.252 323.523C48.8073 323.052 49.1923 322.419 49.407 321.626L50.457 321.899C50.1817 322.907 49.673 323.712 48.931 324.314C48.189 324.911 47.2323 325.21 46.061 325.21ZM51.9945 325V317.44H58.0075V325H56.9785V318.427H53.0235V325H51.9945ZM65.9782 317.44V325H64.9772V319.113L60.8332 325H59.9652V317.44H60.9662V323.278L65.1172 317.44H65.9782ZM71.0789 325.21C70.3182 325.21 69.6742 325.04 69.1469 324.699C68.6196 324.358 68.2182 323.889 67.9429 323.292C67.6722 322.69 67.5322 321.999 67.5229 321.22C67.5322 320.427 67.6769 319.731 67.9569 319.134C68.2369 318.532 68.6406 318.065 69.1679 317.734C69.6952 317.398 70.3346 317.23 71.0859 317.23C71.8512 317.23 72.5162 317.417 73.0809 317.79C73.6502 318.163 74.0399 318.674 74.2499 319.323L73.2419 319.645C73.0646 319.192 72.7822 318.842 72.3949 318.595C72.0122 318.343 71.5736 318.217 71.0789 318.217C70.5236 318.217 70.0639 318.345 69.6999 318.602C69.3359 318.854 69.0652 319.206 68.8879 319.659C68.7106 320.112 68.6196 320.632 68.6149 321.22C68.6242 322.125 68.8342 322.853 69.2449 323.404C69.6556 323.95 70.2669 324.223 71.0789 324.223C71.5922 324.223 72.0286 324.106 72.3879 323.873C72.7519 323.635 73.0272 323.29 73.2139 322.837L74.2499 323.145C73.9699 323.817 73.5592 324.33 73.0179 324.685C72.4766 325.035 71.8302 325.21 71.0789 325.21ZM77.8168 325.21C77.2475 325.21 76.7692 325.107 76.3818 324.902C75.9992 324.697 75.7122 324.424 75.5208 324.083C75.3295 323.742 75.2338 323.371 75.2338 322.97C75.2338 322.559 75.3155 322.209 75.4788 321.92C75.6468 321.626 75.8732 321.386 76.1578 321.199C76.4472 321.012 76.7808 320.87 77.1588 320.772C77.5415 320.679 77.9638 320.597 78.4258 320.527C78.8925 320.452 79.3475 320.389 79.7908 320.338C80.2388 320.282 80.6308 320.228 80.9668 320.177L80.6028 320.401C80.6168 319.654 80.4722 319.101 80.1688 318.742C79.8655 318.383 79.3382 318.203 78.5868 318.203C78.0688 318.203 77.6302 318.32 77.2708 318.553C76.9162 318.786 76.6665 319.155 76.5218 319.659L75.5208 319.365C75.6935 318.688 76.0412 318.163 76.5638 317.79C77.0865 317.417 77.7655 317.23 78.6008 317.23C79.2915 317.23 79.8772 317.361 80.3578 317.622C80.8432 317.879 81.1862 318.252 81.3868 318.742C81.4802 318.961 81.5408 319.206 81.5688 319.477C81.5968 319.748 81.6108 320.023 81.6108 320.303V325H80.6938V323.103L80.9598 323.215C80.7032 323.864 80.3042 324.358 79.7628 324.699C79.2215 325.04 78.5728 325.21 77.8168 325.21ZM77.9358 324.321C78.4165 324.321 78.8365 324.235 79.1958 324.062C79.5552 323.889 79.8445 323.654 80.0638 323.355C80.2832 323.052 80.4255 322.711 80.4908 322.333C80.5468 322.09 80.5772 321.824 80.5818 321.535C80.5865 321.241 80.5888 321.022 80.5888 320.877L80.9808 321.08C80.6308 321.127 80.2505 321.173 79.8398 321.22C79.4338 321.267 79.0325 321.32 78.6358 321.381C78.2438 321.442 77.8892 321.514 77.5718 321.598C77.3572 321.659 77.1495 321.745 76.9488 321.857C76.7482 321.964 76.5825 322.109 76.4518 322.291C76.3258 322.473 76.2628 322.699 76.2628 322.97C76.2628 323.189 76.3165 323.402 76.4238 323.607C76.5358 323.812 76.7132 323.983 76.9558 324.118C77.2032 324.253 77.5298 324.321 77.9358 324.321ZM83.4261 325V317.44H84.4551V320.723H88.7181V317.44H89.7471V325H88.7181V321.71H84.4551V325H83.4261ZM97.7106 317.44V325H96.7096V319.113L92.5656 325H91.6976V317.44H92.6986V323.278L96.8496 317.44H97.7106ZM102.874 325.21C102.137 325.21 101.498 325.047 100.956 324.72C100.42 324.393 100.002 323.934 99.7033 323.341C99.4046 322.748 99.2553 322.053 99.2553 321.255C99.2553 320.429 99.4023 319.715 99.6963 319.113C99.9903 318.511 100.403 318.047 100.935 317.72C101.472 317.393 102.104 317.23 102.832 317.23C103.579 317.23 104.216 317.403 104.743 317.748C105.271 318.089 105.67 318.579 105.94 319.218C106.211 319.857 106.335 320.62 106.311 321.507H105.261V321.143C105.243 320.163 105.03 319.423 104.624 318.924C104.223 318.425 103.635 318.175 102.86 318.175C102.048 318.175 101.425 318.439 100.991 318.966C100.562 319.493 100.347 320.245 100.347 321.22C100.347 322.172 100.562 322.912 100.991 323.439C101.425 323.962 102.039 324.223 102.832 324.223C103.374 324.223 103.845 324.099 104.246 323.852C104.652 323.6 104.972 323.238 105.205 322.767L106.164 323.138C105.866 323.796 105.425 324.307 104.841 324.671C104.263 325.03 103.607 325.21 102.874 325.21ZM99.9833 321.507V320.646H105.758V321.507H99.9833ZM113.825 325.21C113.073 325.21 112.432 325.04 111.9 324.699C111.368 324.358 110.959 323.887 110.675 323.285C110.39 322.683 110.248 321.992 110.248 321.213C110.248 320.42 110.392 319.724 110.682 319.127C110.971 318.53 111.382 318.065 111.914 317.734C112.45 317.398 113.087 317.23 113.825 317.23C114.581 317.23 115.225 317.4 115.757 317.741C116.293 318.077 116.702 318.546 116.982 319.148C117.266 319.745 117.409 320.434 117.409 321.213C117.409 322.006 117.266 322.704 116.982 323.306C116.697 323.903 116.286 324.37 115.75 324.706C115.213 325.042 114.571 325.21 113.825 325.21ZM113.825 324.223C114.665 324.223 115.29 323.945 115.701 323.39C116.111 322.83 116.317 322.104 116.317 321.213C116.317 320.298 116.109 319.57 115.694 319.029C115.283 318.488 114.66 318.217 113.825 318.217C113.26 318.217 112.793 318.345 112.425 318.602C112.061 318.854 111.788 319.206 111.606 319.659C111.428 320.107 111.34 320.625 111.34 321.213C111.34 322.123 111.55 322.853 111.97 323.404C112.39 323.95 113.008 324.223 113.825 324.223ZM118.946 325V317.44H124.959V325H123.93V318.427H119.975V325H118.946ZM126.223 325V324.097C126.503 324.148 126.716 324.137 126.86 324.062C127.01 323.983 127.119 323.852 127.189 323.67C127.259 323.483 127.318 323.252 127.364 322.977C127.439 322.52 127.507 322.016 127.567 321.465C127.628 320.914 127.682 320.308 127.728 319.645C127.78 318.978 127.831 318.243 127.882 317.44H133.02V325H131.998V318.427H128.834C128.802 318.922 128.764 319.414 128.722 319.904C128.68 320.394 128.636 320.865 128.589 321.318C128.547 321.766 128.501 322.179 128.449 322.557C128.398 322.935 128.344 323.262 128.288 323.537C128.204 323.952 128.092 324.284 127.952 324.531C127.817 324.778 127.614 324.942 127.343 325.021C127.073 325.1 126.699 325.093 126.223 325ZM137.139 325.21C136.57 325.21 136.091 325.107 135.704 324.902C135.321 324.697 135.034 324.424 134.843 324.083C134.652 323.742 134.556 323.371 134.556 322.97C134.556 322.559 134.638 322.209 134.801 321.92C134.969 321.626 135.195 321.386 135.48 321.199C135.769 321.012 136.103 320.87 136.481 320.772C136.864 320.679 137.286 320.597 137.748 320.527C138.215 320.452 138.67 320.389 139.113 320.338C139.561 320.282 139.953 320.228 140.289 320.177L139.925 320.401C139.939 319.654 139.794 319.101 139.491 318.742C139.188 318.383 138.66 318.203 137.909 318.203C137.391 318.203 136.952 318.32 136.593 318.553C136.238 318.786 135.989 319.155 135.844 319.659L134.843 319.365C135.016 318.688 135.363 318.163 135.886 317.79C136.409 317.417 137.088 317.23 137.923 317.23C138.614 317.23 139.199 317.361 139.68 317.622C140.165 317.879 140.508 318.252 140.709 318.742C140.802 318.961 140.863 319.206 140.891 319.477C140.919 319.748 140.933 320.023 140.933 320.303V325H140.016V323.103L140.282 323.215C140.025 323.864 139.626 324.358 139.085 324.699C138.544 325.04 137.895 325.21 137.139 325.21ZM137.258 324.321C137.739 324.321 138.159 324.235 138.518 324.062C138.877 323.889 139.167 323.654 139.386 323.355C139.605 323.052 139.748 322.711 139.813 322.333C139.869 322.09 139.899 321.824 139.904 321.535C139.909 321.241 139.911 321.022 139.911 320.877L140.303 321.08C139.953 321.127 139.573 321.173 139.162 321.22C138.756 321.267 138.355 321.32 137.958 321.381C137.566 321.442 137.211 321.514 136.894 321.598C136.679 321.659 136.472 321.745 136.271 321.857C136.07 321.964 135.905 322.109 135.774 322.291C135.648 322.473 135.585 322.699 135.585 322.97C135.585 323.189 135.639 323.402 135.746 323.607C135.858 323.812 136.035 323.983 136.278 324.118C136.525 324.253 136.852 324.321 137.258 324.321ZM144.806 325V318.392H142.125V317.44H148.516V318.392H145.835V325H144.806ZM149.858 325L149.844 317.44H150.88V320.289H152.196C152.415 320.289 152.63 320.294 152.84 320.303C153.05 320.312 153.239 320.331 153.407 320.359C153.78 320.434 154.112 320.56 154.401 320.737C154.69 320.914 154.919 321.159 155.087 321.472C155.255 321.78 155.339 322.17 155.339 322.641C155.339 323.29 155.171 323.801 154.835 324.174C154.499 324.547 154.077 324.79 153.568 324.902C153.377 324.944 153.169 324.972 152.945 324.986C152.721 324.995 152.502 325 152.287 325H149.858ZM150.88 324.118H152.245C152.399 324.118 152.574 324.113 152.77 324.104C152.966 324.095 153.139 324.069 153.288 324.027C153.54 323.957 153.766 323.817 153.967 323.607C154.172 323.392 154.275 323.07 154.275 322.641C154.275 322.216 154.177 321.897 153.981 321.682C153.785 321.463 153.524 321.318 153.197 321.248C153.048 321.215 152.889 321.194 152.721 321.185C152.558 321.176 152.399 321.171 152.245 321.171H150.88V324.118ZM156.242 325V317.44H157.271V325H156.242ZM164.756 325.21C163.995 325.21 163.33 325.044 162.761 324.713C162.196 324.377 161.75 323.913 161.424 323.32L162.25 322.795C162.525 323.262 162.868 323.616 163.279 323.859C163.689 324.102 164.161 324.223 164.693 324.223C165.248 324.223 165.694 324.095 166.03 323.838C166.366 323.581 166.534 323.229 166.534 322.781C166.534 322.473 166.461 322.228 166.317 322.046C166.177 321.864 165.962 321.733 165.673 321.654C165.388 321.575 165.031 321.535 164.602 321.535H163.706V320.653H164.588C165.11 320.653 165.53 320.56 165.848 320.373C166.17 320.182 166.331 319.883 166.331 319.477C166.331 319.048 166.17 318.73 165.848 318.525C165.53 318.315 165.15 318.21 164.707 318.21C164.259 318.21 163.834 318.303 163.433 318.49C163.036 318.672 162.702 318.908 162.432 319.197L161.774 318.504C162.152 318.089 162.593 317.774 163.097 317.559C163.605 317.34 164.168 317.23 164.784 317.23C165.269 317.23 165.708 317.316 166.1 317.489C166.496 317.657 166.809 317.904 167.038 318.231C167.271 318.558 167.388 318.95 167.388 319.407C167.388 319.836 167.283 320.207 167.073 320.52C166.867 320.833 166.576 321.092 166.198 321.297L166.142 320.912C166.468 320.973 166.739 321.103 166.954 321.304C167.168 321.505 167.327 321.745 167.43 322.025C167.532 322.305 167.584 322.59 167.584 322.879C167.584 323.36 167.458 323.775 167.206 324.125C166.958 324.47 166.62 324.739 166.191 324.93C165.766 325.117 165.288 325.21 164.756 325.21ZM171.291 325.21C170.722 325.21 170.244 325.107 169.856 324.902C169.474 324.697 169.187 324.424 168.995 324.083C168.804 323.742 168.708 323.371 168.708 322.97C168.708 322.559 168.79 322.209 168.953 321.92C169.121 321.626 169.348 321.386 169.632 321.199C169.922 321.012 170.255 320.87 170.633 320.772C171.016 320.679 171.438 320.597 171.9 320.527C172.367 320.452 172.822 320.389 173.265 320.338C173.713 320.282 174.105 320.228 174.441 320.177L174.077 320.401C174.091 319.654 173.947 319.101 173.643 318.742C173.34 318.383 172.813 318.203 172.061 318.203C171.543 318.203 171.105 318.32 170.745 318.553C170.391 318.786 170.141 319.155 169.996 319.659L168.995 319.365C169.168 318.688 169.516 318.163 170.038 317.79C170.561 317.417 171.24 317.23 172.075 317.23C172.766 317.23 173.352 317.361 173.832 317.622C174.318 317.879 174.661 318.252 174.861 318.742C174.955 318.961 175.015 319.206 175.043 319.477C175.071 319.748 175.085 320.023 175.085 320.303V325H174.168V323.103L174.434 323.215C174.178 323.864 173.779 324.358 173.237 324.699C172.696 325.04 172.047 325.21 171.291 325.21ZM171.41 324.321C171.891 324.321 172.311 324.235 172.67 324.062C173.03 323.889 173.319 323.654 173.538 323.355C173.758 323.052 173.9 322.711 173.965 322.333C174.021 322.09 174.052 321.824 174.056 321.535C174.061 321.241 174.063 321.022 174.063 320.877L174.455 321.08C174.105 321.127 173.725 321.173 173.314 321.22C172.908 321.267 172.507 321.32 172.11 321.381C171.718 321.442 171.364 321.514 171.046 321.598C170.832 321.659 170.624 321.745 170.423 321.857C170.223 321.964 170.057 322.109 169.926 322.291C169.8 322.473 169.737 322.699 169.737 322.97C169.737 323.189 169.791 323.402 169.898 323.607C170.01 323.812 170.188 323.983 170.43 324.118C170.678 324.253 171.004 324.321 171.41 324.321ZM180.788 328.36L182.251 324.391L182.272 325.567L178.961 317.44H180.053L182.769 324.237H182.321L184.827 317.44H185.877L181.817 328.36H180.788ZM189.956 325.21C189.195 325.21 188.551 325.04 188.024 324.699C187.497 324.358 187.095 323.889 186.82 323.292C186.549 322.69 186.409 321.999 186.4 321.22C186.409 320.427 186.554 319.731 186.834 319.134C187.114 318.532 187.518 318.065 188.045 317.734C188.572 317.398 189.212 317.23 189.963 317.23C190.728 317.23 191.393 317.417 191.958 317.79C192.527 318.163 192.917 318.674 193.127 319.323L192.119 319.645C191.942 319.192 191.659 318.842 191.272 318.595C190.889 318.343 190.451 318.217 189.956 318.217C189.401 318.217 188.941 318.345 188.577 318.602C188.213 318.854 187.942 319.206 187.765 319.659C187.588 320.112 187.497 320.632 187.492 321.22C187.501 322.125 187.711 322.853 188.122 323.404C188.533 323.95 189.144 324.223 189.956 324.223C190.469 324.223 190.906 324.106 191.265 323.873C191.629 323.635 191.904 323.29 192.091 322.837L193.127 323.145C192.847 323.817 192.436 324.33 191.895 324.685C191.354 325.035 190.707 325.21 189.956 325.21ZM196.445 325V318.392H193.764V317.44H200.155V318.392H197.474V325H196.445ZM204.885 325.21C204.189 325.21 203.601 325.035 203.121 324.685C202.64 324.33 202.276 323.852 202.029 323.25C201.781 322.643 201.658 321.964 201.658 321.213C201.658 320.448 201.781 319.766 202.029 319.169C202.281 318.567 202.649 318.093 203.135 317.748C203.62 317.403 204.217 317.23 204.927 317.23C205.617 317.23 206.21 317.405 206.705 317.755C207.199 318.105 207.577 318.581 207.839 319.183C208.105 319.785 208.238 320.462 208.238 321.213C208.238 321.969 208.105 322.648 207.839 323.25C207.573 323.852 207.19 324.33 206.691 324.685C206.191 325.035 205.589 325.21 204.885 325.21ZM201.483 328.36V317.44H202.407V323.131H202.519V328.36H201.483ZM204.78 324.251C205.307 324.251 205.746 324.118 206.096 323.852C206.446 323.586 206.707 323.224 206.88 322.767C207.057 322.305 207.146 321.787 207.146 321.213C207.146 320.644 207.059 320.13 206.887 319.673C206.714 319.216 206.45 318.854 206.096 318.588C205.746 318.322 205.3 318.189 204.759 318.189C204.231 318.189 203.793 318.317 203.443 318.574C203.097 318.831 202.838 319.188 202.666 319.645C202.493 320.098 202.407 320.62 202.407 321.213C202.407 321.796 202.493 322.319 202.666 322.781C202.838 323.238 203.1 323.598 203.45 323.859C203.8 324.12 204.243 324.251 204.78 324.251ZM212.932 325.21C212.181 325.21 211.539 325.04 211.007 324.699C210.475 324.358 210.067 323.887 209.782 323.285C209.497 322.683 209.355 321.992 209.355 321.213C209.355 320.42 209.5 319.724 209.789 319.127C210.078 318.53 210.489 318.065 211.021 317.734C211.558 317.398 212.195 317.23 212.932 317.23C213.688 317.23 214.332 317.4 214.864 317.741C215.401 318.077 215.809 318.546 216.089 319.148C216.374 319.745 216.516 320.434 216.516 321.213C216.516 322.006 216.374 322.704 216.089 323.306C215.804 323.903 215.394 324.37 214.857 324.706C214.32 325.042 213.679 325.21 212.932 325.21ZM212.932 324.223C213.772 324.223 214.397 323.945 214.808 323.39C215.219 322.83 215.424 322.104 215.424 321.213C215.424 320.298 215.216 319.57 214.801 319.029C214.39 318.488 213.767 318.217 212.932 318.217C212.367 318.217 211.901 318.345 211.532 318.602C211.168 318.854 210.895 319.206 210.713 319.659C210.536 320.107 210.447 320.625 210.447 321.213C210.447 322.123 210.657 322.853 211.077 323.404C211.497 323.95 212.115 324.223 212.932 324.223ZM224.066 317.44V325H223.065V319.113L218.921 325H218.053V317.44H219.054V323.278L223.205 317.44H224.066ZM229.167 325.21C228.406 325.21 227.762 325.04 227.235 324.699C226.707 324.358 226.306 323.889 226.031 323.292C225.76 322.69 225.62 321.999 225.611 321.22C225.62 320.427 225.765 319.731 226.045 319.134C226.325 318.532 226.728 318.065 227.256 317.734C227.783 317.398 228.422 317.23 229.174 317.23C229.939 317.23 230.604 317.417 231.169 317.79C231.738 318.163 232.128 318.674 232.338 319.323L231.33 319.645C231.152 319.192 230.87 318.842 230.483 318.595C230.1 318.343 229.661 318.217 229.167 318.217C228.611 318.217 228.152 318.345 227.788 318.602C227.424 318.854 227.153 319.206 226.976 319.659C226.798 320.112 226.707 320.632 226.703 321.22C226.712 322.125 226.922 322.853 227.333 323.404C227.743 323.95 228.355 324.223 229.167 324.223C229.68 324.223 230.116 324.106 230.476 323.873C230.84 323.635 231.115 323.29 231.302 322.837L232.338 323.145C232.058 323.817 231.647 324.33 231.106 324.685C230.564 325.035 229.918 325.21 229.167 325.21ZM235.656 325V318.392H232.975V317.44H239.366V318.392H236.685V325H235.656ZM240.694 325V317.44H243.809C243.967 317.44 244.159 317.449 244.383 317.468C244.611 317.487 244.824 317.522 245.02 317.573C245.444 317.685 245.785 317.914 246.042 318.259C246.303 318.604 246.434 319.02 246.434 319.505C246.434 319.776 246.392 320.018 246.308 320.233C246.228 320.443 246.114 320.625 245.965 320.779C245.895 320.858 245.818 320.928 245.734 320.989C245.65 321.045 245.568 321.092 245.489 321.129C245.638 321.157 245.799 321.222 245.972 321.325C246.242 321.484 246.448 321.698 246.588 321.969C246.728 322.235 246.798 322.559 246.798 322.942C246.798 323.46 246.674 323.882 246.427 324.209C246.179 324.536 245.848 324.76 245.433 324.881C245.246 324.932 245.043 324.965 244.824 324.979C244.609 324.993 244.406 325 244.215 325H240.694ZM241.73 324.125H244.166C244.264 324.125 244.387 324.118 244.537 324.104C244.686 324.085 244.819 324.062 244.936 324.034C245.211 323.964 245.412 323.824 245.538 323.614C245.668 323.399 245.734 323.166 245.734 322.914C245.734 322.583 245.636 322.312 245.44 322.102C245.248 321.887 244.992 321.757 244.67 321.71C244.562 321.687 244.45 321.673 244.334 321.668C244.217 321.663 244.112 321.661 244.019 321.661H241.73V324.125ZM241.73 320.779H243.844C243.965 320.779 244.1 320.772 244.25 320.758C244.404 320.739 244.537 320.709 244.649 320.667C244.891 320.583 245.069 320.438 245.181 320.233C245.297 320.028 245.356 319.804 245.356 319.561C245.356 319.295 245.293 319.062 245.167 318.861C245.045 318.66 244.861 318.52 244.614 318.441C244.446 318.38 244.264 318.345 244.068 318.336C243.876 318.327 243.755 318.322 243.704 318.322H241.73V320.779ZM251.35 325.21C250.599 325.21 249.957 325.04 249.425 324.699C248.893 324.358 248.485 323.887 248.2 323.285C247.915 322.683 247.773 321.992 247.773 321.213C247.773 320.42 247.918 319.724 248.207 319.127C248.496 318.53 248.907 318.065 249.439 317.734C249.976 317.398 250.613 317.23 251.35 317.23C252.106 317.23 252.75 317.4 253.282 317.741C253.819 318.077 254.227 318.546 254.507 319.148C254.792 319.745 254.934 320.434 254.934 321.213C254.934 322.006 254.792 322.704 254.507 323.306C254.222 323.903 253.812 324.37 253.275 324.706C252.738 325.042 252.097 325.21 251.35 325.21ZM251.35 324.223C252.19 324.223 252.815 323.945 253.226 323.39C253.637 322.83 253.842 322.104 253.842 321.213C253.842 320.298 253.634 319.57 253.219 319.029C252.808 318.488 252.185 318.217 251.35 318.217C250.785 318.217 250.319 318.345 249.95 318.602C249.586 318.854 249.313 319.206 249.131 319.659C248.954 320.107 248.865 320.625 248.865 321.213C248.865 322.123 249.075 322.853 249.495 323.404C249.915 323.95 250.533 324.223 251.35 324.223ZM261.99 325.203C261.49 325.203 261.031 325.114 260.611 324.937C260.191 324.76 259.829 324.508 259.526 324.181C259.222 323.85 259.001 323.455 258.861 322.998L259.841 322.704C260.009 323.203 260.284 323.581 260.667 323.838C261.054 324.095 261.49 324.218 261.976 324.209C262.424 324.2 262.809 324.099 263.131 323.908C263.457 323.717 263.707 323.451 263.88 323.11C264.052 322.769 264.139 322.375 264.139 321.927C264.139 321.241 263.938 320.69 263.537 320.275C263.14 319.855 262.615 319.645 261.962 319.645C261.78 319.645 261.588 319.671 261.388 319.722C261.187 319.769 261 319.836 260.828 319.925L260.31 319.106L264.23 315.487L264.398 315.907H259.26V314.92H265.084V315.921L261.668 319.183L261.654 318.777C262.354 318.688 262.97 318.768 263.502 319.015C264.034 319.262 264.449 319.64 264.748 320.149C265.051 320.653 265.203 321.246 265.203 321.927C265.203 322.571 265.063 323.14 264.783 323.635C264.507 324.125 264.127 324.51 263.642 324.79C263.156 325.065 262.606 325.203 261.99 325.203ZM270.428 325.21C269.798 325.21 269.224 325.058 268.706 324.755C268.193 324.447 267.782 324.032 267.474 323.509C267.171 322.982 267.019 322.389 267.019 321.731V318.238C267.019 317.561 267.171 316.959 267.474 316.432C267.777 315.9 268.19 315.482 268.713 315.179C269.24 314.871 269.838 314.717 270.505 314.717C271.079 314.717 271.611 314.843 272.101 315.095C272.596 315.347 272.999 315.699 273.312 316.152L272.521 316.803C272.306 316.467 272.022 316.199 271.667 315.998C271.312 315.797 270.925 315.697 270.505 315.697C270.034 315.697 269.614 315.811 269.245 316.04C268.876 316.269 268.587 316.57 268.377 316.943C268.167 317.312 268.062 317.713 268.062 318.147V320.345L267.803 320.051C268.097 319.589 268.482 319.216 268.958 318.931C269.439 318.646 269.961 318.504 270.526 318.504C271.151 318.504 271.714 318.653 272.213 318.952C272.712 319.246 273.109 319.645 273.403 320.149C273.697 320.653 273.844 321.218 273.844 321.843C273.844 322.464 273.688 323.028 273.375 323.537C273.067 324.046 272.654 324.452 272.136 324.755C271.623 325.058 271.053 325.21 270.428 325.21ZM270.428 324.209C270.867 324.209 271.266 324.104 271.625 323.894C271.989 323.684 272.276 323.399 272.486 323.04C272.701 322.681 272.808 322.282 272.808 321.843C272.808 321.404 272.701 321.005 272.486 320.646C272.276 320.282 271.991 319.995 271.632 319.785C271.273 319.57 270.874 319.463 270.435 319.463C269.996 319.463 269.597 319.57 269.238 319.785C268.879 319.995 268.592 320.282 268.377 320.646C268.167 321.005 268.062 321.404 268.062 321.843C268.062 322.277 268.167 322.674 268.377 323.033C268.587 323.392 268.872 323.679 269.231 323.894C269.59 324.104 269.989 324.209 270.428 324.209ZM278.41 325.203C277.91 325.203 277.451 325.114 277.031 324.937C276.611 324.76 276.249 324.508 275.946 324.181C275.642 323.85 275.421 323.455 275.281 322.998L276.261 322.704C276.429 323.203 276.704 323.581 277.087 323.838C277.474 324.095 277.91 324.218 278.396 324.209C278.844 324.2 279.229 324.099 279.551 323.908C279.877 323.717 280.127 323.451 280.3 323.11C280.472 322.769 280.559 322.375 280.559 321.927C280.559 321.241 280.358 320.69 279.957 320.275C279.56 319.855 279.035 319.645 278.382 319.645C278.2 319.645 278.008 319.671 277.808 319.722C277.607 319.769 277.42 319.836 277.248 319.925L276.73 319.106L280.65 315.487L280.818 315.907H275.68V314.92H281.504V315.921L278.088 319.183L278.074 318.777C278.774 318.688 279.39 318.768 279.922 319.015C280.454 319.262 280.869 319.64 281.168 320.149C281.471 320.653 281.623 321.246 281.623 321.927C281.623 322.571 281.483 323.14 281.203 323.635C280.927 324.125 280.547 324.51 280.062 324.79C279.576 325.065 279.026 325.203 278.41 325.203ZM283.159 324.993L283.166 324.055L287.723 319.939C288.115 319.584 288.374 319.248 288.5 318.931C288.631 318.609 288.696 318.273 288.696 317.923C288.696 317.508 288.598 317.132 288.402 316.796C288.206 316.46 287.942 316.194 287.611 315.998C287.28 315.797 286.909 315.697 286.498 315.697C286.069 315.697 285.686 315.8 285.35 316.005C285.014 316.21 284.748 316.481 284.552 316.817C284.361 317.153 284.267 317.519 284.272 317.916H283.222C283.222 317.305 283.367 316.756 283.656 316.271C283.945 315.786 284.337 315.405 284.832 315.13C285.327 314.85 285.887 314.71 286.512 314.71C287.123 314.71 287.672 314.855 288.157 315.144C288.647 315.429 289.032 315.816 289.312 316.306C289.597 316.791 289.739 317.333 289.739 317.93C289.739 318.35 289.688 318.721 289.585 319.043C289.487 319.36 289.331 319.657 289.116 319.932C288.906 320.203 288.638 320.483 288.311 320.772L284.265 324.426L284.104 324.006H289.739V324.993H283.159ZM291.962 325L295.672 315.921H291.003V314.92H296.771V315.921L293.068 325H291.962ZM301.426 325.21C300.903 325.21 300.42 325.103 299.977 324.888C299.533 324.673 299.155 324.377 298.843 323.999C298.53 323.621 298.306 323.187 298.171 322.697L299.158 322.431C299.246 322.795 299.407 323.11 299.641 323.376C299.874 323.637 300.147 323.84 300.46 323.985C300.777 324.13 301.108 324.202 301.454 324.202C301.902 324.202 302.303 324.095 302.658 323.88C303.017 323.661 303.302 323.371 303.512 323.012C303.722 322.653 303.827 322.258 303.827 321.829C303.827 321.386 303.717 320.987 303.498 320.632C303.278 320.273 302.989 319.988 302.63 319.778C302.27 319.568 301.878 319.463 301.454 319.463C300.978 319.463 300.567 319.568 300.222 319.778C299.876 319.983 299.601 320.242 299.396 320.555L298.458 320.163L298.766 314.92H304.149V315.907H299.221L299.732 315.424L299.459 319.897L299.2 319.554C299.489 319.223 299.839 318.964 300.25 318.777C300.66 318.59 301.092 318.497 301.545 318.497C302.165 318.497 302.725 318.646 303.225 318.945C303.724 319.239 304.121 319.638 304.415 320.142C304.709 320.646 304.856 321.208 304.856 321.829C304.856 322.445 304.699 323.01 304.387 323.523C304.074 324.032 303.659 324.44 303.141 324.748C302.623 325.056 302.051 325.21 301.426 325.21ZM308.288 325V316.068L306.391 317.209V316.054L308.288 314.92H309.331V325H308.288ZM315.059 325.21C314.429 325.21 313.871 325.084 313.386 324.832C312.905 324.58 312.527 324.228 312.252 323.775C311.981 323.318 311.846 322.783 311.846 322.172C311.846 321.547 311.998 320.991 312.301 320.506C312.604 320.016 313.066 319.645 313.687 319.393L313.673 319.799C313.155 319.608 312.761 319.295 312.49 318.861C312.219 318.427 312.084 317.946 312.084 317.419C312.084 316.859 312.212 316.378 312.469 315.977C312.726 315.571 313.076 315.258 313.519 315.039C313.967 314.82 314.48 314.71 315.059 314.71C315.638 314.71 316.151 314.82 316.599 315.039C317.047 315.258 317.399 315.571 317.656 315.977C317.913 316.378 318.041 316.859 318.041 317.419C318.041 317.946 317.91 318.425 317.649 318.854C317.392 319.283 316.998 319.598 316.466 319.799L316.431 319.393C317.052 319.64 317.516 320.009 317.824 320.499C318.137 320.989 318.293 321.547 318.293 322.172C318.293 322.783 318.155 323.318 317.88 323.775C317.605 324.228 317.224 324.58 316.739 324.832C316.254 325.084 315.694 325.21 315.059 325.21ZM315.059 324.223C315.694 324.223 316.209 324.048 316.606 323.698C317.003 323.343 317.201 322.835 317.201 322.172C317.201 321.5 317.005 320.991 316.613 320.646C316.221 320.296 315.703 320.121 315.059 320.121C314.415 320.121 313.899 320.296 313.512 320.646C313.125 320.991 312.931 321.5 312.931 322.172C312.931 322.835 313.127 323.343 313.519 323.698C313.911 324.048 314.424 324.223 315.059 324.223ZM315.059 319.127C315.619 319.127 316.074 318.985 316.424 318.7C316.774 318.411 316.949 317.984 316.949 317.419C316.949 316.854 316.774 316.432 316.424 316.152C316.074 315.867 315.619 315.725 315.059 315.725C314.499 315.725 314.044 315.867 313.694 316.152C313.349 316.432 313.176 316.854 313.176 317.419C313.176 317.984 313.349 318.411 313.694 318.7C314.044 318.985 314.499 319.127 315.059 319.127ZM321.864 325V316.068L319.967 317.209V316.054L321.864 314.92H322.907V325H321.864ZM328.971 325.21C328.341 325.21 327.767 325.058 327.249 324.755C326.736 324.447 326.325 324.032 326.017 323.509C325.714 322.982 325.562 322.389 325.562 321.731V318.238C325.562 317.561 325.714 316.959 326.017 316.432C326.32 315.9 326.733 315.482 327.256 315.179C327.783 314.871 328.381 314.717 329.048 314.717C329.622 314.717 330.154 314.843 330.644 315.095C331.139 315.347 331.542 315.699 331.855 316.152L331.064 316.803C330.849 316.467 330.565 316.199 330.21 315.998C329.855 315.797 329.468 315.697 329.048 315.697C328.577 315.697 328.157 315.811 327.788 316.04C327.419 316.269 327.13 316.57 326.92 316.943C326.71 317.312 326.605 317.713 326.605 318.147V320.345L326.346 320.051C326.64 319.589 327.025 319.216 327.501 318.931C327.982 318.646 328.504 318.504 329.069 318.504C329.694 318.504 330.257 318.653 330.756 318.952C331.255 319.246 331.652 319.645 331.946 320.149C332.24 320.653 332.387 321.218 332.387 321.843C332.387 322.464 332.231 323.028 331.918 323.537C331.61 324.046 331.197 324.452 330.679 324.755C330.166 325.058 329.596 325.21 328.971 325.21ZM328.971 324.209C329.41 324.209 329.809 324.104 330.168 323.894C330.532 323.684 330.819 323.399 331.029 323.04C331.244 322.681 331.351 322.282 331.351 321.843C331.351 321.404 331.244 321.005 331.029 320.646C330.819 320.282 330.534 319.995 330.175 319.785C329.816 319.57 329.417 319.463 328.978 319.463C328.539 319.463 328.14 319.57 327.781 319.785C327.422 319.995 327.135 320.282 326.92 320.646C326.71 321.005 326.605 321.404 326.605 321.843C326.605 322.277 326.71 322.674 326.92 323.033C327.13 323.392 327.415 323.679 327.774 323.894C328.133 324.104 328.532 324.209 328.971 324.209Z" fill="white"/>
<rect x="16.5" y="349.5" width="360" height="38" rx="9.5" fill="black" stroke="white"/>
<path d="M41.98 374V363.92H49.701V374H48.672V364.907H43.009V374H41.98ZM54.8167 374.21C54.0654 374.21 53.4237 374.04 52.8917 373.699C52.3597 373.358 51.9514 372.887 51.6667 372.285C51.382 371.683 51.2397 370.992 51.2397 370.213C51.2397 369.42 51.3844 368.724 51.6737 368.127C51.963 367.53 52.3737 367.065 52.9057 366.734C53.4424 366.398 54.0794 366.23 54.8167 366.23C55.5727 366.23 56.2167 366.4 56.7487 366.741C57.2854 367.077 57.6937 367.546 57.9737 368.148C58.2584 368.745 58.4007 369.434 58.4007 370.213C58.4007 371.006 58.2584 371.704 57.9737 372.306C57.689 372.903 57.2784 373.37 56.7417 373.706C56.205 374.042 55.5634 374.21 54.8167 374.21ZM54.8167 373.223C55.6567 373.223 56.282 372.945 56.6927 372.39C57.1034 371.83 57.3087 371.104 57.3087 370.213C57.3087 369.298 57.101 368.57 56.6857 368.029C56.275 367.488 55.652 367.217 54.8167 367.217C54.252 367.217 53.7854 367.345 53.4167 367.602C53.0527 367.854 52.7797 368.206 52.5977 368.659C52.4204 369.107 52.3317 369.625 52.3317 370.213C52.3317 371.123 52.5417 371.853 52.9617 372.404C53.3817 372.95 54 373.223 54.8167 373.223ZM59.9378 374V366.44H65.9508V374H64.9218V367.427H60.9668V374H59.9378ZM71.0725 374.21C70.3212 374.21 69.6795 374.04 69.1475 373.699C68.6155 373.358 68.2072 372.887 67.9225 372.285C67.6379 371.683 67.4955 370.992 67.4955 370.213C67.4955 369.42 67.6402 368.724 67.9295 368.127C68.2189 367.53 68.6295 367.065 69.1615 366.734C69.6982 366.398 70.3352 366.23 71.0725 366.23C71.8285 366.23 72.4725 366.4 73.0045 366.741C73.5412 367.077 73.9495 367.546 74.2295 368.148C74.5142 368.745 74.6565 369.434 74.6565 370.213C74.6565 371.006 74.5142 371.704 74.2295 372.306C73.9449 372.903 73.5342 373.37 72.9975 373.706C72.4609 374.042 71.8192 374.21 71.0725 374.21ZM71.0725 373.223C71.9125 373.223 72.5379 372.945 72.9485 372.39C73.3592 371.83 73.5645 371.104 73.5645 370.213C73.5645 369.298 73.3569 368.57 72.9415 368.029C72.5309 367.488 71.9079 367.217 71.0725 367.217C70.5079 367.217 70.0412 367.345 69.6725 367.602C69.3085 367.854 69.0355 368.206 68.8535 368.659C68.6762 369.107 68.5875 369.625 68.5875 370.213C68.5875 371.123 68.7975 371.853 69.2175 372.404C69.6375 372.95 70.2559 373.223 71.0725 373.223ZM75.5007 374V373.097C75.7807 373.148 75.993 373.137 76.1377 373.062C76.287 372.983 76.3967 372.852 76.4667 372.67C76.5367 372.483 76.595 372.252 76.6417 371.977C76.7164 371.52 76.784 371.016 76.8447 370.465C76.9054 369.914 76.959 369.308 77.0057 368.645C77.057 367.978 77.1084 367.243 77.1597 366.44H82.2977V374H81.2757V367.427H78.1117C78.079 367.922 78.0417 368.414 77.9997 368.904C77.9577 369.394 77.9134 369.865 77.8667 370.318C77.8247 370.766 77.778 371.179 77.7267 371.557C77.6754 371.935 77.6217 372.262 77.5657 372.537C77.4817 372.952 77.3697 373.284 77.2297 373.531C77.0944 373.778 76.8914 373.942 76.6207 374.021C76.35 374.1 75.9767 374.093 75.5007 374ZM84.2464 374V366.44H85.2754V369.723H89.5384V366.44H90.5674V374H89.5384V370.71H85.2754V374H84.2464ZM95.7239 374.21C94.9866 374.21 94.3473 374.047 93.8059 373.72C93.2693 373.393 92.8516 372.934 92.5529 372.341C92.2543 371.748 92.1049 371.053 92.1049 370.255C92.1049 369.429 92.2519 368.715 92.5459 368.113C92.8399 367.511 93.2529 367.047 93.7849 366.72C94.3216 366.393 94.9539 366.23 95.6819 366.23C96.4286 366.23 97.0656 366.403 97.5929 366.748C98.1203 367.089 98.5193 367.579 98.7899 368.218C99.0606 368.857 99.1843 369.62 99.1609 370.507H98.1109V370.143C98.0923 369.163 97.8799 368.423 97.4739 367.924C97.0726 367.425 96.4846 367.175 95.7099 367.175C94.8979 367.175 94.2749 367.439 93.8409 367.966C93.4116 368.493 93.1969 369.245 93.1969 370.22C93.1969 371.172 93.4116 371.912 93.8409 372.439C94.2749 372.962 94.8886 373.223 95.6819 373.223C96.2233 373.223 96.6946 373.099 97.0959 372.852C97.5019 372.6 97.8216 372.238 98.0549 371.767L99.0139 372.138C98.7153 372.796 98.2743 373.307 97.6909 373.671C97.1123 374.03 96.4566 374.21 95.7239 374.21ZM92.8329 370.507V369.646H98.6079V370.507H92.8329ZM100.707 374V366.44H101.736V369.723H105.999V366.44H107.028V374H105.999V370.71H101.736V374H100.707ZM114.992 366.44V374H113.991V368.113L109.847 374H108.979V366.44H109.98V372.278L114.131 366.44H114.992ZM120.156 374.21C119.418 374.21 118.779 374.047 118.238 373.72C117.701 373.393 117.283 372.934 116.985 372.341C116.686 371.748 116.537 371.053 116.537 370.255C116.537 369.429 116.684 368.715 116.978 368.113C117.272 367.511 117.685 367.047 118.217 366.72C118.753 366.393 119.386 366.23 120.114 366.23C120.86 366.23 121.497 366.403 122.025 366.748C122.552 367.089 122.951 367.579 123.222 368.218C123.492 368.857 123.616 369.62 123.593 370.507H122.543V370.143C122.524 369.163 122.312 368.423 121.906 367.924C121.504 367.425 120.916 367.175 120.142 367.175C119.33 367.175 118.707 367.439 118.273 367.966C117.843 368.493 117.629 369.245 117.629 370.22C117.629 371.172 117.843 371.912 118.273 372.439C118.707 372.962 119.32 373.223 120.114 373.223C120.655 373.223 121.126 373.099 121.528 372.852C121.934 372.6 122.253 372.238 122.487 371.767L123.446 372.138C123.147 372.796 122.706 373.307 122.123 373.671C121.544 374.03 120.888 374.21 120.156 374.21ZM117.265 370.507V369.646H123.04V370.507H117.265ZM130.98 374.217C130.275 374.212 129.671 374.058 129.167 373.755C128.663 373.452 128.271 372.999 127.991 372.397C127.715 371.795 127.566 371.044 127.543 370.143C127.529 369.746 127.538 369.315 127.571 368.848C127.603 368.377 127.655 367.929 127.725 367.504C127.795 367.079 127.879 366.734 127.977 366.468C128.098 366.123 128.271 365.801 128.495 365.502C128.723 365.199 128.987 364.951 129.286 364.76C129.575 364.564 129.902 364.412 130.266 364.305C130.634 364.193 131.017 364.107 131.414 364.046C131.815 363.985 132.212 363.932 132.604 363.885C133 363.838 133.367 363.78 133.703 363.71L133.815 364.641C133.558 364.692 133.255 364.739 132.905 364.781C132.555 364.823 132.188 364.874 131.806 364.935C131.423 364.991 131.057 365.068 130.707 365.166C130.357 365.264 130.058 365.392 129.811 365.551C129.433 365.78 129.141 366.125 128.936 366.587C128.735 367.049 128.611 367.579 128.565 368.176C128.854 367.723 129.237 367.383 129.713 367.154C130.193 366.925 130.714 366.811 131.274 366.811C131.955 366.811 132.541 366.967 133.031 367.28C133.525 367.593 133.906 368.027 134.172 368.582C134.438 369.137 134.571 369.774 134.571 370.493C134.571 371.244 134.424 371.9 134.13 372.46C133.84 373.02 133.427 373.454 132.891 373.762C132.354 374.065 131.717 374.217 130.98 374.217ZM131.057 373.23C131.85 373.23 132.452 372.983 132.863 372.488C133.278 371.993 133.486 371.335 133.486 370.514C133.486 369.674 133.271 369.011 132.842 368.526C132.417 368.041 131.817 367.798 131.043 367.798C130.268 367.798 129.673 368.041 129.258 368.526C128.842 369.011 128.635 369.674 128.635 370.514C128.635 371.354 128.842 372.017 129.258 372.502C129.673 372.987 130.273 373.23 131.057 373.23ZM138.274 374.21C137.705 374.21 137.226 374.107 136.839 373.902C136.456 373.697 136.169 373.424 135.978 373.083C135.787 372.742 135.691 372.371 135.691 371.97C135.691 371.559 135.773 371.209 135.936 370.92C136.104 370.626 136.33 370.386 136.615 370.199C136.904 370.012 137.238 369.87 137.616 369.772C137.999 369.679 138.421 369.597 138.883 369.527C139.35 369.452 139.805 369.389 140.248 369.338C140.696 369.282 141.088 369.228 141.424 369.177L141.06 369.401C141.074 368.654 140.929 368.101 140.626 367.742C140.323 367.383 139.795 367.203 139.044 367.203C138.526 367.203 138.087 367.32 137.728 367.553C137.373 367.786 137.124 368.155 136.979 368.659L135.978 368.365C136.151 367.688 136.498 367.163 137.021 366.79C137.544 366.417 138.223 366.23 139.058 366.23C139.749 366.23 140.334 366.361 140.815 366.622C141.3 366.879 141.643 367.252 141.844 367.742C141.937 367.961 141.998 368.206 142.026 368.477C142.054 368.748 142.068 369.023 142.068 369.303V374H141.151V372.103L141.417 372.215C141.16 372.864 140.761 373.358 140.22 373.699C139.679 374.04 139.03 374.21 138.274 374.21ZM138.393 373.321C138.874 373.321 139.294 373.235 139.653 373.062C140.012 372.889 140.302 372.654 140.521 372.355C140.74 372.052 140.883 371.711 140.948 371.333C141.004 371.09 141.034 370.824 141.039 370.535C141.044 370.241 141.046 370.022 141.046 369.877L141.438 370.08C141.088 370.127 140.708 370.173 140.297 370.22C139.891 370.267 139.49 370.32 139.093 370.381C138.701 370.442 138.346 370.514 138.029 370.598C137.814 370.659 137.607 370.745 137.406 370.857C137.205 370.964 137.04 371.109 136.909 371.291C136.783 371.473 136.72 371.699 136.72 371.97C136.72 372.189 136.774 372.402 136.881 372.607C136.993 372.812 137.17 372.983 137.413 373.118C137.66 373.253 137.987 373.321 138.393 373.321ZM143.19 374V373.097C143.47 373.148 143.682 373.137 143.827 373.062C143.976 372.983 144.086 372.852 144.156 372.67C144.226 372.483 144.284 372.252 144.331 371.977C144.406 371.52 144.473 371.016 144.534 370.465C144.595 369.914 144.648 369.308 144.695 368.645C144.746 367.978 144.798 367.243 144.849 366.44H149.987V374H148.965V367.427H145.801C145.768 367.922 145.731 368.414 145.689 368.904C145.647 369.394 145.603 369.865 145.556 370.318C145.514 370.766 145.467 371.179 145.416 371.557C145.365 371.935 145.311 372.262 145.255 372.537C145.171 372.952 145.059 373.284 144.919 373.531C144.784 373.778 144.581 373.942 144.31 374.021C144.039 374.1 143.666 374.093 143.19 374ZM154.106 374.21C153.537 374.21 153.058 374.107 152.671 373.902C152.288 373.697 152.001 373.424 151.81 373.083C151.619 372.742 151.523 372.371 151.523 371.97C151.523 371.559 151.605 371.209 151.768 370.92C151.936 370.626 152.162 370.386 152.447 370.199C152.736 370.012 153.07 369.87 153.448 369.772C153.831 369.679 154.253 369.597 154.715 369.527C155.182 369.452 155.637 369.389 156.08 369.338C156.528 369.282 156.92 369.228 157.256 369.177L156.892 369.401C156.906 368.654 156.761 368.101 156.458 367.742C156.155 367.383 155.627 367.203 154.876 367.203C154.358 367.203 153.919 367.32 153.56 367.553C153.205 367.786 152.956 368.155 152.811 368.659L151.81 368.365C151.983 367.688 152.33 367.163 152.853 366.79C153.376 366.417 154.055 366.23 154.89 366.23C155.581 366.23 156.166 366.361 156.647 366.622C157.132 366.879 157.475 367.252 157.676 367.742C157.769 367.961 157.83 368.206 157.858 368.477C157.886 368.748 157.9 369.023 157.9 369.303V374H156.983V372.103L157.249 372.215C156.992 372.864 156.593 373.358 156.052 373.699C155.511 374.04 154.862 374.21 154.106 374.21ZM154.225 373.321C154.706 373.321 155.126 373.235 155.485 373.062C155.844 372.889 156.134 372.654 156.353 372.355C156.572 372.052 156.715 371.711 156.78 371.333C156.836 371.09 156.866 370.824 156.871 370.535C156.876 370.241 156.878 370.022 156.878 369.877L157.27 370.08C156.92 370.127 156.54 370.173 156.129 370.22C155.723 370.267 155.322 370.32 154.925 370.381C154.533 370.442 154.178 370.514 153.861 370.598C153.646 370.659 153.439 370.745 153.238 370.857C153.037 370.964 152.872 371.109 152.741 371.291C152.615 371.473 152.552 371.699 152.552 371.97C152.552 372.189 152.606 372.402 152.713 372.607C152.825 372.812 153.002 372.983 153.245 373.118C153.492 373.253 153.819 373.321 154.225 373.321ZM159.715 374V366.44H160.744V369.723H165.007V366.44H166.036V374H165.007V370.71H160.744V374H159.715ZM171.13 374.21C170.369 374.21 169.725 374.04 169.198 373.699C168.67 373.358 168.269 372.889 167.994 372.292C167.723 371.69 167.583 370.999 167.574 370.22C167.583 369.427 167.728 368.731 168.008 368.134C168.288 367.532 168.691 367.065 169.219 366.734C169.746 366.398 170.385 366.23 171.137 366.23C171.902 366.23 172.567 366.417 173.132 366.79C173.701 367.163 174.091 367.674 174.301 368.323L173.293 368.645C173.115 368.192 172.833 367.842 172.446 367.595C172.063 367.343 171.624 367.217 171.13 367.217C170.574 367.217 170.115 367.345 169.751 367.602C169.387 367.854 169.116 368.206 168.939 368.659C168.761 369.112 168.67 369.632 168.666 370.22C168.675 371.125 168.885 371.853 169.296 372.404C169.706 372.95 170.318 373.223 171.13 373.223C171.643 373.223 172.079 373.106 172.439 372.873C172.803 372.635 173.078 372.29 173.265 371.837L174.301 372.145C174.021 372.817 173.61 373.33 173.069 373.685C172.527 374.035 171.881 374.21 171.13 374.21ZM177.868 374.21C177.298 374.21 176.82 374.107 176.433 373.902C176.05 373.697 175.763 373.424 175.572 373.083C175.38 372.742 175.285 372.371 175.285 371.97C175.285 371.559 175.366 371.209 175.53 370.92C175.698 370.626 175.924 370.386 176.209 370.199C176.498 370.012 176.832 369.87 177.21 369.772C177.592 369.679 178.015 369.597 178.477 369.527C178.943 369.452 179.398 369.389 179.842 369.338C180.29 369.282 180.682 369.228 181.018 369.177L180.654 369.401C180.668 368.654 180.523 368.101 180.22 367.742C179.916 367.383 179.389 367.203 178.638 367.203C178.12 367.203 177.681 367.32 177.322 367.553C176.967 367.786 176.717 368.155 176.573 368.659L175.572 368.365C175.744 367.688 176.092 367.163 176.615 366.79C177.137 366.417 177.816 366.23 178.652 366.23C179.342 366.23 179.928 366.361 180.409 366.622C180.894 366.879 181.237 367.252 181.438 367.742C181.531 367.961 181.592 368.206 181.62 368.477C181.648 368.748 181.662 369.023 181.662 369.303V374H180.745V372.103L181.011 372.215C180.754 372.864 180.355 373.358 179.814 373.699C179.272 374.04 178.624 374.21 177.868 374.21ZM177.987 373.321C178.467 373.321 178.887 373.235 179.247 373.062C179.606 372.889 179.895 372.654 180.115 372.355C180.334 372.052 180.476 371.711 180.542 371.333C180.598 371.09 180.628 370.824 180.633 370.535C180.637 370.241 180.64 370.022 180.64 369.877L181.032 370.08C180.682 370.127 180.301 370.173 179.891 370.22C179.485 370.267 179.083 370.32 178.687 370.381C178.295 370.442 177.94 370.514 177.623 370.598C177.408 370.659 177.2 370.745 177 370.857C176.799 370.964 176.633 371.109 176.503 371.291C176.377 371.473 176.314 371.699 176.314 371.97C176.314 372.189 176.367 372.402 176.475 372.607C176.587 372.812 176.764 372.983 177.007 373.118C177.254 373.253 177.581 373.321 177.987 373.321Z" fill="white"/>
<path d="M336.737 374V365.068L334.84 366.209V365.054L336.737 363.92H337.78V374H336.737ZM343.725 374.21C343.104 374.21 342.544 374.065 342.045 373.776C341.55 373.487 341.158 373.095 340.869 372.6C340.58 372.101 340.435 371.541 340.435 370.92V367C340.435 366.379 340.58 365.822 340.869 365.327C341.158 364.828 341.55 364.433 342.045 364.144C342.544 363.855 343.104 363.71 343.725 363.71C344.346 363.71 344.903 363.855 345.398 364.144C345.897 364.433 346.292 364.828 346.581 365.327C346.87 365.822 347.015 366.379 347.015 367V370.92C347.015 371.541 346.87 372.101 346.581 372.6C346.292 373.095 345.897 373.487 345.398 373.776C344.903 374.065 344.346 374.21 343.725 374.21ZM343.725 373.216C344.14 373.216 344.518 373.116 344.859 372.915C345.2 372.71 345.47 372.437 345.671 372.096C345.872 371.755 345.972 371.38 345.972 370.969V366.951C345.972 366.536 345.872 366.158 345.671 365.817C345.47 365.476 345.2 365.206 344.859 365.005C344.518 364.8 344.14 364.697 343.725 364.697C343.31 364.697 342.932 364.8 342.591 365.005C342.25 365.206 341.98 365.476 341.779 365.817C341.578 366.158 341.478 366.536 341.478 366.951V370.969C341.478 371.38 341.578 371.755 341.779 372.096C341.98 372.437 342.25 372.71 342.591 372.915C342.932 373.116 343.31 373.216 343.725 373.216ZM352.27 374.21C351.649 374.21 351.089 374.065 350.59 373.776C350.095 373.487 349.703 373.095 349.414 372.6C349.125 372.101 348.98 371.541 348.98 370.92V367C348.98 366.379 349.125 365.822 349.414 365.327C349.703 364.828 350.095 364.433 350.59 364.144C351.089 363.855 351.649 363.71 352.27 363.71C352.891 363.71 353.448 363.855 353.943 364.144C354.442 364.433 354.837 364.828 355.126 365.327C355.415 365.822 355.56 366.379 355.56 367V370.92C355.56 371.541 355.415 372.101 355.126 372.6C354.837 373.095 354.442 373.487 353.943 373.776C353.448 374.065 352.891 374.21 352.27 374.21ZM352.27 373.216C352.685 373.216 353.063 373.116 353.404 372.915C353.745 372.71 354.015 372.437 354.216 372.096C354.417 371.755 354.517 371.38 354.517 370.969V366.951C354.517 366.536 354.417 366.158 354.216 365.817C354.015 365.476 353.745 365.206 353.404 365.005C353.063 364.8 352.685 364.697 352.27 364.697C351.855 364.697 351.477 364.8 351.136 365.005C350.795 365.206 350.525 365.476 350.324 365.817C350.123 366.158 350.023 366.536 350.023 366.951V370.969C350.023 371.38 350.123 371.755 350.324 372.096C350.525 372.437 350.795 372.71 351.136 372.915C351.477 373.116 351.855 373.216 352.27 373.216ZM357.525 370.115V369.184H362.32C362.399 369.184 362.495 369.179 362.607 369.17C362.719 369.161 362.833 369.144 362.95 369.121C363.454 369.009 363.83 368.762 364.077 368.379C364.329 367.992 364.455 367.553 364.455 367.063C364.455 366.746 364.401 366.44 364.294 366.146C364.187 365.852 364.021 365.6 363.797 365.39C363.573 365.18 363.291 365.038 362.95 364.963C362.838 364.935 362.724 364.919 362.607 364.914C362.49 364.909 362.395 364.907 362.32 364.907H359.394V363.92H362.348C362.427 363.92 362.528 363.925 362.649 363.934C362.775 363.939 362.913 363.953 363.062 363.976C363.585 364.06 364.028 364.244 364.392 364.529C364.761 364.809 365.038 365.166 365.225 365.6C365.416 366.034 365.512 366.515 365.512 367.042C365.512 367.826 365.302 368.491 364.882 369.037C364.467 369.583 363.86 369.924 363.062 370.059C362.913 370.078 362.775 370.092 362.649 370.101C362.528 370.11 362.427 370.115 362.348 370.115H357.525ZM357.525 372.292V371.41H362.936V372.292H357.525ZM358.596 374V363.92H359.625V374H358.596Z" fill="white"/>
<path d="M351.689 325.203C351.19 325.203 350.73 325.114 350.31 324.937C349.89 324.76 349.528 324.508 349.225 324.181C348.922 323.85 348.7 323.455 348.56 322.998L349.54 322.704C349.708 323.203 349.983 323.581 350.366 323.838C350.753 324.095 351.19 324.218 351.675 324.209C352.123 324.2 352.508 324.099 352.83 323.908C353.157 323.717 353.406 323.451 353.579 323.11C353.752 322.769 353.838 322.375 353.838 321.927C353.838 321.241 353.637 320.69 353.236 320.275C352.839 319.855 352.314 319.645 351.661 319.645C351.479 319.645 351.288 319.671 351.087 319.722C350.886 319.769 350.7 319.836 350.527 319.925L350.009 319.106L353.929 315.487L354.097 315.907H348.959V314.92H354.783V315.921L351.367 319.183L351.353 318.777C352.053 318.688 352.669 318.768 353.201 319.015C353.733 319.262 354.148 319.64 354.447 320.149C354.75 320.653 354.902 321.246 354.902 321.927C354.902 322.571 354.762 323.14 354.482 323.635C354.207 324.125 353.826 324.51 353.341 324.79C352.856 325.065 352.305 325.203 351.689 325.203ZM356.718 321.115V320.184H361.513C361.593 320.184 361.688 320.179 361.8 320.17C361.912 320.161 362.027 320.144 362.143 320.121C362.647 320.009 363.023 319.762 363.27 319.379C363.522 318.992 363.648 318.553 363.648 318.063C363.648 317.746 363.595 317.44 363.487 317.146C363.38 316.852 363.214 316.6 362.99 316.39C362.766 316.18 362.484 316.038 362.143 315.963C362.031 315.935 361.917 315.919 361.8 315.914C361.684 315.909 361.588 315.907 361.513 315.907H358.587V314.92H361.541C361.621 314.92 361.721 314.925 361.842 314.934C361.968 314.939 362.106 314.953 362.255 314.976C362.778 315.06 363.221 315.244 363.585 315.529C363.954 315.809 364.232 316.166 364.418 316.6C364.61 317.034 364.705 317.515 364.705 318.042C364.705 318.826 364.495 319.491 364.075 320.037C363.66 320.583 363.053 320.924 362.255 321.059C362.106 321.078 361.968 321.092 361.842 321.101C361.721 321.11 361.621 321.115 361.541 321.115H356.718ZM356.718 323.292V322.41H362.129V323.292H356.718ZM357.789 325V314.92H358.818V325H357.789Z" fill="white"/>
<rect x="16.5" y="799.5" width="360" height="38" rx="9.5" fill="black" stroke="white"/>
<path d="M148.12 825V813.48H156.944V825H155.768V814.608H149.296V825H148.12ZM162.791 825.24C161.932 825.24 161.199 825.045 160.591 824.656C159.983 824.267 159.516 823.728 159.191 823.04C158.865 822.352 158.703 821.563 158.703 820.672C158.703 819.765 158.868 818.971 159.199 818.288C159.529 817.605 159.999 817.075 160.607 816.696C161.22 816.312 161.948 816.12 162.791 816.12C163.655 816.12 164.391 816.315 164.999 816.704C165.612 817.088 166.079 817.624 166.399 818.312C166.724 818.995 166.887 819.781 166.887 820.672C166.887 821.579 166.724 822.376 166.399 823.064C166.073 823.747 165.604 824.28 164.991 824.664C164.377 825.048 163.644 825.24 162.791 825.24ZM162.791 824.112C163.751 824.112 164.465 823.795 164.935 823.16C165.404 822.52 165.639 821.691 165.639 820.672C165.639 819.627 165.401 818.795 164.927 818.176C164.457 817.557 163.745 817.248 162.791 817.248C162.145 817.248 161.612 817.395 161.191 817.688C160.775 817.976 160.463 818.379 160.255 818.896C160.052 819.408 159.951 820 159.951 820.672C159.951 821.712 160.191 822.547 160.671 823.176C161.151 823.8 161.857 824.112 162.791 824.112ZM168.011 826.92V823.992C168.502 823.992 168.854 823.835 169.067 823.52C169.281 823.2 169.454 822.691 169.587 821.992C169.678 821.539 169.753 821.051 169.811 820.528C169.87 820.005 169.921 819.408 169.963 818.736C170.006 818.059 170.046 817.267 170.083 816.36H175.795V823.992H176.627V826.92H175.491V825H169.139V826.92H168.011ZM170.003 823.992H174.627V817.368H171.171C171.155 817.773 171.131 818.203 171.099 818.656C171.073 819.109 171.038 819.563 170.995 820.016C170.958 820.469 170.913 820.896 170.859 821.296C170.811 821.691 170.753 822.037 170.683 822.336C170.603 822.72 170.515 823.048 170.419 823.32C170.329 823.592 170.19 823.816 170.003 823.992ZM177.589 826.92V823.992C178.08 823.992 178.432 823.835 178.645 823.52C178.859 823.2 179.032 822.691 179.165 821.992C179.256 821.539 179.331 821.051 179.389 820.528C179.448 820.005 179.499 819.408 179.541 818.736C179.584 818.059 179.624 817.267 179.661 816.36H185.373V823.992H186.205V826.92H185.069V825H178.717V826.92H177.589ZM179.581 823.992H184.205V817.368H180.749C180.733 817.773 180.709 818.203 180.677 818.656C180.651 819.109 180.616 819.563 180.573 820.016C180.536 820.469 180.491 820.896 180.437 821.296C180.389 821.691 180.331 822.037 180.261 822.336C180.181 822.72 180.093 823.048 179.997 823.32C179.907 823.592 179.768 823.816 179.581 823.992ZM191.464 825.24C190.621 825.24 189.89 825.053 189.272 824.68C188.658 824.307 188.181 823.781 187.84 823.104C187.498 822.427 187.328 821.632 187.328 820.72C187.328 819.776 187.496 818.96 187.832 818.272C188.168 817.584 188.64 817.053 189.248 816.68C189.861 816.307 190.584 816.12 191.416 816.12C192.269 816.12 192.997 816.317 193.6 816.712C194.202 817.101 194.658 817.661 194.968 818.392C195.277 819.123 195.418 819.995 195.392 821.008H194.192V820.592C194.17 819.472 193.928 818.627 193.464 818.056C193.005 817.485 192.333 817.2 191.448 817.2C190.52 817.2 189.808 817.501 189.312 818.104C188.821 818.707 188.576 819.565 188.576 820.68C188.576 821.768 188.821 822.613 189.312 823.216C189.808 823.813 190.509 824.112 191.416 824.112C192.034 824.112 192.573 823.971 193.032 823.688C193.496 823.4 193.861 822.987 194.128 822.448L195.224 822.872C194.882 823.624 194.378 824.208 193.712 824.624C193.05 825.035 192.301 825.24 191.464 825.24ZM188.16 821.008V820.024H194.76V821.008H188.16ZM201.047 825.24C200.252 825.24 199.58 825.04 199.031 824.64C198.482 824.235 198.066 823.688 197.783 823C197.5 822.307 197.359 821.531 197.359 820.672C197.359 819.797 197.5 819.019 197.783 818.336C198.071 817.648 198.492 817.107 199.047 816.712C199.602 816.317 200.284 816.12 201.095 816.12C201.884 816.12 202.562 816.32 203.127 816.72C203.692 817.12 204.124 817.664 204.423 818.352C204.727 819.04 204.879 819.813 204.879 820.672C204.879 821.536 204.727 822.312 204.423 823C204.119 823.688 203.682 824.235 203.111 824.64C202.54 825.04 201.852 825.24 201.047 825.24ZM197.159 828.84V816.36H198.215V822.864H198.343V828.84H197.159ZM200.927 824.144C201.53 824.144 202.031 823.992 202.431 823.688C202.831 823.384 203.13 822.971 203.327 822.448C203.53 821.92 203.631 821.328 203.631 820.672C203.631 820.021 203.532 819.435 203.335 818.912C203.138 818.389 202.836 817.976 202.431 817.672C202.031 817.368 201.522 817.216 200.903 817.216C200.3 817.216 199.799 817.363 199.399 817.656C199.004 817.949 198.708 818.357 198.511 818.88C198.314 819.397 198.215 819.995 198.215 820.672C198.215 821.339 198.314 821.936 198.511 822.464C198.708 822.987 199.007 823.397 199.407 823.696C199.807 823.995 200.314 824.144 200.927 824.144ZM205.363 825L209.011 820.68L205.515 816.36H206.843L210.251 820.624V816.36H211.339V820.624L214.747 816.36H216.067L212.571 820.68L216.219 825H214.851L211.339 820.736V825H210.251V820.736L206.731 825H205.363ZM217.487 825L217.495 816.36H218.679V820.52L222.535 816.36H224.103L220.055 820.68L224.631 825H222.919L218.679 820.84V825H217.487ZM227.905 825.24C227.254 825.24 226.707 825.123 226.265 824.888C225.827 824.653 225.499 824.341 225.281 823.952C225.062 823.563 224.953 823.139 224.953 822.68C224.953 822.211 225.046 821.811 225.233 821.48C225.425 821.144 225.683 820.869 226.009 820.656C226.339 820.443 226.721 820.28 227.153 820.168C227.59 820.061 228.073 819.968 228.601 819.888C229.134 819.803 229.654 819.731 230.161 819.672C230.673 819.608 231.121 819.547 231.505 819.488L231.089 819.744C231.105 818.891 230.939 818.259 230.593 817.848C230.246 817.437 229.643 817.232 228.785 817.232C228.193 817.232 227.691 817.365 227.281 817.632C226.875 817.899 226.59 818.32 226.424 818.896L225.281 818.56C225.478 817.787 225.875 817.187 226.473 816.76C227.07 816.333 227.846 816.12 228.801 816.12C229.59 816.12 230.259 816.269 230.809 816.568C231.363 816.861 231.755 817.288 231.985 817.848C232.091 818.099 232.161 818.379 232.193 818.688C232.225 818.997 232.241 819.312 232.241 819.632V825H231.193V822.832L231.497 822.96C231.203 823.701 230.747 824.267 230.129 824.656C229.51 825.045 228.769 825.24 227.905 825.24ZM228.041 824.224C228.59 824.224 229.07 824.125 229.481 823.928C229.891 823.731 230.222 823.461 230.473 823.12C230.723 822.773 230.886 822.384 230.961 821.952C231.025 821.675 231.059 821.371 231.065 821.04C231.07 820.704 231.073 820.453 231.073 820.288L231.521 820.52C231.121 820.573 230.686 820.627 230.217 820.68C229.753 820.733 229.294 820.795 228.841 820.864C228.393 820.933 227.987 821.016 227.625 821.112C227.379 821.181 227.142 821.28 226.913 821.408C226.683 821.531 226.494 821.696 226.345 821.904C226.201 822.112 226.129 822.371 226.129 822.68C226.129 822.931 226.19 823.173 226.312 823.408C226.441 823.643 226.643 823.837 226.921 823.992C227.203 824.147 227.577 824.224 228.041 824.224Z" fill="white"/>
<path d="M36.736 269H32.832V252.76L22.144 269H18.24V245.96H22.144V262.2L32.832 245.96H36.736V269ZM48.7128 269.48C46.9314 269.48 45.4114 269.085 44.1528 268.296C42.8941 267.496 41.9288 266.408 41.2568 265.032C40.5954 263.656 40.2594 262.099 40.2488 260.36C40.2594 258.589 40.6061 257.021 41.2888 255.656C41.9821 254.28 42.9634 253.203 44.2328 252.424C45.5021 251.635 47.0114 251.24 48.7608 251.24C50.7234 251.24 52.3821 251.736 53.7368 252.728C55.1021 253.709 55.9928 255.053 56.4088 256.76L52.5688 257.8C52.2701 256.872 51.7741 256.152 51.0808 255.64C50.3874 255.117 49.5981 254.856 48.7128 254.856C47.7101 254.856 46.8834 255.096 46.2328 255.576C45.5821 256.045 45.1021 256.696 44.7928 257.528C44.4834 258.36 44.3288 259.304 44.3288 260.36C44.3288 262.003 44.6968 263.331 45.4328 264.344C46.1688 265.357 47.2621 265.864 48.7128 265.864C49.7368 265.864 50.5421 265.629 51.1288 265.16C51.7261 264.691 52.1741 264.013 52.4728 263.128L56.4088 264.008C55.8754 265.768 54.9421 267.123 53.6088 268.072C52.2754 269.011 50.6434 269.48 48.7128 269.48ZM63.8573 269V255.144H58.0813V251.72H73.4893V255.144H67.7133V269H63.8573ZM83.8408 269.48C82.1128 269.48 80.6034 269.091 79.3128 268.312C78.0221 267.533 77.0194 266.461 76.3048 265.096C75.6008 263.72 75.2488 262.141 75.2488 260.36C75.2488 258.547 75.6114 256.957 76.3368 255.592C77.0621 254.227 78.0701 253.16 79.3608 252.392C80.6514 251.624 82.1448 251.24 83.8408 251.24C85.5794 251.24 87.0941 251.629 88.3848 252.408C89.6754 253.187 90.6781 254.264 91.3928 255.64C92.1074 257.005 92.4648 258.579 92.4648 260.36C92.4648 262.152 92.1021 263.736 91.3768 265.112C90.6621 266.477 89.6594 267.549 88.3688 268.328C87.0781 269.096 85.5688 269.48 83.8408 269.48ZM83.8408 265.864C85.3768 265.864 86.5181 265.352 87.2648 264.328C88.0114 263.304 88.3848 261.981 88.3848 260.36C88.3848 258.685 88.0061 257.352 87.2488 256.36C86.4914 255.357 85.3554 254.856 83.8408 254.856C82.8061 254.856 81.9528 255.091 81.2808 255.56C80.6194 256.019 80.1288 256.664 79.8088 257.496C79.4888 258.317 79.3288 259.272 79.3288 260.36C79.3288 262.035 79.7074 263.373 80.4648 264.376C81.2328 265.368 82.3581 265.864 83.8408 265.864ZM104.294 269.48C102.609 269.48 101.195 269.08 100.054 268.28C98.9127 267.48 98.054 266.392 97.478 265.016C96.902 263.629 96.614 262.077 96.614 260.36C96.614 258.621 96.902 257.064 97.478 255.688C98.054 254.312 98.8967 253.229 100.006 252.44C101.126 251.64 102.507 251.24 104.15 251.24C105.782 251.24 107.195 251.64 108.39 252.44C109.595 253.229 110.529 254.312 111.19 255.688C111.851 257.053 112.182 258.611 112.182 260.36C112.182 262.088 111.857 263.64 111.206 265.016C110.555 266.392 109.638 267.48 108.454 268.28C107.27 269.08 105.883 269.48 104.294 269.48ZM95.958 276.68V251.72H99.366V263.848H99.846V276.68H95.958ZM103.702 266.024C104.705 266.024 105.531 265.773 106.182 265.272C106.833 264.771 107.313 264.093 107.622 263.24C107.942 262.376 108.102 261.416 108.102 260.36C108.102 259.315 107.942 258.365 107.622 257.512C107.302 256.648 106.806 255.965 106.134 255.464C105.462 254.952 104.609 254.696 103.574 254.696C102.593 254.696 101.793 254.936 101.174 255.416C100.555 255.885 100.097 256.547 99.798 257.4C99.51 258.243 99.366 259.229 99.366 260.36C99.366 261.48 99.51 262.467 99.798 263.32C100.097 264.173 100.561 264.84 101.19 265.32C101.83 265.789 102.667 266.024 103.702 266.024ZM130.685 251.72V269H126.989V257.72L118.765 269H115.677V251.72H119.373V262.712L127.629 251.72H130.685ZM145.514 269V263.24H142.426C142.031 263.24 141.535 263.229 140.938 263.208C140.351 263.187 139.802 263.133 139.29 263.048C137.956 262.803 136.852 262.221 135.978 261.304C135.103 260.376 134.666 259.117 134.666 257.528C134.666 255.971 135.082 254.717 135.914 253.768C136.746 252.819 137.828 252.211 139.162 251.944C139.716 251.827 140.287 251.763 140.874 251.752C141.471 251.731 141.967 251.72 142.362 251.72H149.37V269H145.514ZM134.218 269L138.346 262.392H142.362L138.266 269H134.218ZM142.026 260.216H145.514V254.744H142.026C141.823 254.744 141.578 254.755 141.29 254.776C141.002 254.797 140.714 254.845 140.426 254.92C140.116 255.016 139.823 255.181 139.546 255.416C139.268 255.651 139.039 255.944 138.858 256.296C138.676 256.648 138.586 257.048 138.586 257.496C138.586 258.168 138.778 258.728 139.162 259.176C139.556 259.613 140.015 259.907 140.538 260.056C140.794 260.12 141.055 260.163 141.322 260.184C141.599 260.205 141.834 260.216 142.026 260.216ZM160.208 269V251.72H175.216V269H171.36V255.336H164.064V269H160.208ZM187.341 269.48C185.613 269.48 184.103 269.091 182.813 268.312C181.522 267.533 180.519 266.461 179.805 265.096C179.101 263.72 178.749 262.141 178.749 260.36C178.749 258.547 179.111 256.957 179.837 255.592C180.562 254.227 181.57 253.16 182.861 252.392C184.151 251.624 185.645 251.24 187.341 251.24C189.079 251.24 190.594 251.629 191.885 252.408C193.175 253.187 194.178 254.264 194.893 255.64C195.607 257.005 195.965 258.579 195.965 260.36C195.965 262.152 195.602 263.736 194.877 265.112C194.162 266.477 193.159 267.549 191.869 268.328C190.578 269.096 189.069 269.48 187.341 269.48ZM187.341 265.864C188.877 265.864 190.018 265.352 190.765 264.328C191.511 263.304 191.885 261.981 191.885 260.36C191.885 258.685 191.506 257.352 190.749 256.36C189.991 255.357 188.855 254.856 187.341 254.856C186.306 254.856 185.453 255.091 184.781 255.56C184.119 256.019 183.629 256.664 183.309 257.496C182.989 258.317 182.829 259.272 182.829 260.36C182.829 262.035 183.207 263.373 183.965 264.376C184.733 265.368 185.858 265.864 187.341 265.864ZM199.458 269V251.72H214.466V269H210.61V255.336H203.314V269H199.458ZM226.591 269.48C224.863 269.48 223.353 269.091 222.063 268.312C220.772 267.533 219.769 266.461 219.055 265.096C218.351 263.72 217.999 262.141 217.999 260.36C217.999 258.547 218.361 256.957 219.087 255.592C219.812 254.227 220.82 253.16 222.111 252.392C223.401 251.624 224.895 251.24 226.591 251.24C228.329 251.24 229.844 251.629 231.135 252.408C232.425 253.187 233.428 254.264 234.143 255.64C234.857 257.005 235.215 258.579 235.215 260.36C235.215 262.152 234.852 263.736 234.127 265.112C233.412 266.477 232.409 267.549 231.119 268.328C229.828 269.096 228.319 269.48 226.591 269.48ZM226.591 265.864C228.127 265.864 229.268 265.352 230.015 264.328C230.761 263.304 231.135 261.981 231.135 260.36C231.135 258.685 230.756 257.352 229.999 256.36C229.241 255.357 228.105 254.856 226.591 254.856C225.556 254.856 224.703 255.091 224.031 255.56C223.369 256.019 222.879 256.664 222.559 257.496C222.239 258.317 222.079 259.272 222.079 260.36C222.079 262.035 222.457 263.373 223.215 264.376C223.983 265.368 225.108 265.864 226.591 265.864ZM237.14 269V265.768C237.769 265.885 238.255 265.875 238.596 265.736C238.937 265.587 239.193 265.309 239.364 264.904C239.535 264.499 239.684 263.96 239.812 263.288C239.983 262.339 240.132 261.245 240.26 260.008C240.399 258.771 240.516 257.448 240.612 256.04C240.719 254.632 240.815 253.192 240.9 251.72H253.62V269H249.78V255.336H244.292C244.239 256.029 244.175 256.808 244.1 257.672C244.025 258.525 243.945 259.389 243.86 260.264C243.775 261.139 243.679 261.971 243.572 262.76C243.476 263.539 243.375 264.205 243.268 264.76C243.023 266.008 242.671 266.995 242.212 267.72C241.764 268.445 241.135 268.909 240.324 269.112C239.513 269.325 238.452 269.288 237.14 269ZM258.083 269V251.72H261.939V258.536H269.699V251.72H273.555V269H269.699V262.152H261.939V269H258.083ZM285.877 269.48C284.128 269.48 282.592 269.101 281.269 268.344C279.947 267.587 278.912 266.536 278.165 265.192C277.429 263.848 277.061 262.301 277.061 260.552C277.061 258.664 277.424 257.027 278.149 255.64C278.875 254.243 279.883 253.16 281.173 252.392C282.464 251.624 283.957 251.24 285.653 251.24C287.445 251.24 288.965 251.661 290.213 252.504C291.472 253.336 292.405 254.515 293.013 256.04C293.621 257.565 293.851 259.363 293.701 261.432H289.877V260.024C289.867 258.147 289.536 256.776 288.885 255.912C288.235 255.048 287.211 254.616 285.813 254.616C284.235 254.616 283.061 255.107 282.293 256.088C281.525 257.059 281.141 258.483 281.141 260.36C281.141 262.109 281.525 263.464 282.293 264.424C283.061 265.384 284.181 265.864 285.653 265.864C286.603 265.864 287.419 265.656 288.101 265.24C288.795 264.813 289.328 264.2 289.701 263.4L293.509 264.552C292.848 266.109 291.824 267.32 290.437 268.184C289.061 269.048 287.541 269.48 285.877 269.48ZM279.925 261.432V258.52H291.813V261.432H279.925ZM297.239 269V251.72H301.095V258.536H308.855V251.72H312.711V269H308.855V262.152H301.095V269H297.239ZM332.154 251.72V269H328.458V257.72L320.234 269H317.146V251.72H320.842V262.712L329.098 251.72H332.154ZM344.63 249.768C343.745 249.768 342.934 249.549 342.198 249.112C341.462 248.675 340.876 248.093 340.438 247.368C340.001 246.632 339.782 245.816 339.782 244.92H342.79C342.79 245.432 342.966 245.869 343.318 246.232C343.681 246.584 344.118 246.76 344.63 246.76C345.142 246.76 345.574 246.584 345.926 246.232C346.289 245.869 346.47 245.432 346.47 244.92H349.478C349.478 245.816 349.26 246.632 348.822 247.368C348.385 248.093 347.798 248.675 347.062 249.112C346.326 249.549 345.516 249.768 344.63 249.768ZM351.622 251.72V269H347.926V257.72L339.702 269H336.614V251.72H340.31V262.712L348.566 251.72H351.622Z" fill="white"/>
<path d="M170.12 147V135.48H177.232V136.608H171.296V139.96H174.568C174.68 139.96 174.805 139.965 174.944 139.976C175.088 139.981 175.232 139.995 175.376 140.016C175.968 140.096 176.472 140.299 176.888 140.624C177.309 140.949 177.629 141.36 177.848 141.856C178.072 142.352 178.184 142.893 178.184 143.48C178.184 144.067 178.072 144.608 177.848 145.104C177.629 145.6 177.309 146.011 176.888 146.336C176.472 146.661 175.968 146.864 175.376 146.944C175.232 146.96 175.088 146.973 174.944 146.984C174.805 146.995 174.68 147 174.568 147H170.12ZM171.296 145.872H174.536C174.632 145.872 174.744 145.867 174.872 145.856C175 145.845 175.125 145.829 175.248 145.808C175.84 145.691 176.275 145.408 176.552 144.96C176.835 144.507 176.976 144.013 176.976 143.48C176.976 142.941 176.835 142.448 176.552 142C176.275 141.552 175.84 141.269 175.248 141.152C175.125 141.125 175 141.109 174.872 141.104C174.744 141.093 174.632 141.088 174.536 141.088H171.296V145.872ZM182.248 147.24C181.598 147.24 181.051 147.123 180.608 146.888C180.171 146.653 179.843 146.341 179.624 145.952C179.406 145.563 179.296 145.139 179.296 144.68C179.296 144.211 179.39 143.811 179.576 143.48C179.768 143.144 180.027 142.869 180.352 142.656C180.683 142.443 181.064 142.28 181.496 142.168C181.934 142.061 182.416 141.968 182.944 141.888C183.478 141.803 183.998 141.731 184.504 141.672C185.016 141.608 185.464 141.547 185.848 141.488L185.432 141.744C185.448 140.891 185.283 140.259 184.936 139.848C184.59 139.437 183.987 139.232 183.128 139.232C182.536 139.232 182.035 139.365 181.624 139.632C181.219 139.899 180.934 140.32 180.768 140.896L179.624 140.56C179.822 139.787 180.219 139.187 180.816 138.76C181.414 138.333 182.19 138.12 183.144 138.12C183.934 138.12 184.603 138.269 185.152 138.568C185.707 138.861 186.099 139.288 186.328 139.848C186.435 140.099 186.504 140.379 186.536 140.688C186.568 140.997 186.584 141.312 186.584 141.632V147H185.536V144.832L185.84 144.96C185.547 145.701 185.091 146.267 184.472 146.656C183.854 147.045 183.112 147.24 182.248 147.24ZM182.384 146.224C182.934 146.224 183.414 146.125 183.824 145.928C184.235 145.731 184.566 145.461 184.816 145.12C185.067 144.773 185.23 144.384 185.304 143.952C185.368 143.675 185.403 143.371 185.408 143.04C185.414 142.704 185.416 142.453 185.416 142.288L185.864 142.52C185.464 142.573 185.03 142.627 184.56 142.68C184.096 142.733 183.638 142.795 183.184 142.864C182.736 142.933 182.331 143.016 181.968 143.112C181.723 143.181 181.486 143.28 181.256 143.408C181.027 143.531 180.838 143.696 180.688 143.904C180.544 144.112 180.472 144.371 180.472 144.68C180.472 144.931 180.534 145.173 180.656 145.408C180.784 145.643 180.987 145.837 181.264 145.992C181.547 146.147 181.92 146.224 182.384 146.224ZM187.867 147V145.968C188.187 146.027 188.43 146.013 188.595 145.928C188.766 145.837 188.891 145.688 188.971 145.48C189.051 145.267 189.118 145.003 189.171 144.688C189.256 144.165 189.334 143.589 189.403 142.96C189.472 142.331 189.534 141.637 189.587 140.88C189.646 140.117 189.704 139.277 189.763 138.36H195.635V147H194.467V139.488H190.851C190.814 140.053 190.771 140.616 190.723 141.176C190.675 141.736 190.624 142.275 190.571 142.792C190.523 143.304 190.47 143.776 190.411 144.208C190.352 144.64 190.291 145.013 190.227 145.328C190.131 145.803 190.003 146.181 189.843 146.464C189.688 146.747 189.456 146.933 189.147 147.024C188.838 147.115 188.411 147.107 187.867 147ZM200.342 147.24C199.691 147.24 199.145 147.123 198.702 146.888C198.265 146.653 197.937 146.341 197.718 145.952C197.499 145.563 197.39 145.139 197.39 144.68C197.39 144.211 197.483 143.811 197.67 143.48C197.862 143.144 198.121 142.869 198.446 142.656C198.777 142.443 199.158 142.28 199.59 142.168C200.027 142.061 200.51 141.968 201.038 141.888C201.571 141.803 202.091 141.731 202.598 141.672C203.11 141.608 203.558 141.547 203.942 141.488L203.526 141.744C203.542 140.891 203.377 140.259 203.03 139.848C202.683 139.437 202.081 139.232 201.222 139.232C200.63 139.232 200.129 139.365 199.718 139.632C199.313 139.899 199.027 140.32 198.862 140.896L197.718 140.56C197.915 139.787 198.313 139.187 198.91 138.76C199.507 138.333 200.283 138.12 201.238 138.12C202.027 138.12 202.697 138.269 203.246 138.568C203.801 138.861 204.193 139.288 204.422 139.848C204.529 140.099 204.598 140.379 204.63 140.688C204.662 140.997 204.678 141.312 204.678 141.632V147H203.63V144.832L203.934 144.96C203.641 145.701 203.185 146.267 202.566 146.656C201.947 147.045 201.206 147.24 200.342 147.24ZM200.478 146.224C201.027 146.224 201.507 146.125 201.918 145.928C202.329 145.731 202.659 145.461 202.91 145.12C203.161 144.773 203.323 144.384 203.398 143.952C203.462 143.675 203.497 143.371 203.502 143.04C203.507 142.704 203.51 142.453 203.51 142.288L203.958 142.52C203.558 142.573 203.123 142.627 202.654 142.68C202.19 142.733 201.731 142.795 201.278 142.864C200.83 142.933 200.425 143.016 200.062 143.112C199.817 143.181 199.579 143.28 199.35 143.408C199.121 143.531 198.931 143.696 198.782 143.904C198.638 144.112 198.566 144.371 198.566 144.68C198.566 144.931 198.627 145.173 198.75 145.408C198.878 145.643 199.081 145.837 199.358 145.992C199.641 146.147 200.014 146.224 200.478 146.224ZM206.753 147V138.36H207.929V142.112H212.801V138.36H213.977V147H212.801V143.24H207.929V147H206.753ZM219.798 147.24C218.928 147.24 218.192 147.045 217.59 146.656C216.987 146.267 216.528 145.731 216.214 145.048C215.904 144.36 215.744 143.571 215.734 142.68C215.744 141.773 215.91 140.979 216.23 140.296C216.55 139.608 217.011 139.075 217.614 138.696C218.216 138.312 218.947 138.12 219.806 138.12C220.68 138.12 221.44 138.333 222.086 138.76C222.736 139.187 223.182 139.771 223.422 140.512L222.27 140.88C222.067 140.363 221.744 139.963 221.302 139.68C220.864 139.392 220.363 139.248 219.798 139.248C219.163 139.248 218.638 139.395 218.222 139.688C217.806 139.976 217.496 140.379 217.294 140.896C217.091 141.413 216.987 142.008 216.982 142.68C216.992 143.715 217.232 144.547 217.702 145.176C218.171 145.8 218.87 146.112 219.798 146.112C220.384 146.112 220.883 145.979 221.294 145.712C221.71 145.44 222.024 145.045 222.238 144.528L223.422 144.88C223.102 145.648 222.632 146.235 222.014 146.64C221.395 147.04 220.656 147.24 219.798 147.24Z" fill="white"/>
<line x1="-8.74228e-08" y1="89" x2="393" y2="89" stroke="white" stroke-opacity="0.5" stroke-width="2"/>
</svg>
