<svg width="393" height="852" viewBox="0 0 393 852" fill="none" xmlns="http://www.w3.org/2000/svg">
<rect width="393" height="852" fill="white"/>
<rect width="393" height="90" fill="black"/>
<path d="M38.5 27L57.9856 60.75H19.0144L38.5 27Z" fill="white"/>
<path d="M71.224 34.932C73.768 34.932 75.568 35.592 76.624 36.912C77.68 38.208 78.208 39.9 78.208 41.988C78.208 44.076 77.68 45.768 76.624 47.064C75.568 48.36 73.768 49.008 71.224 49.008H67.624V57H63.952V34.932H71.224ZM70.72 47.712C72.04 47.712 73 47.208 73.6 46.2C74.224 45.192 74.536 43.788 74.536 41.988C74.536 40.212 74.224 38.82 73.6 37.812C73 36.804 72.04 36.3 70.72 36.3H67.624V47.712H70.72ZM97.36 57H93.4L90.304 49.332C90.016 48.636 89.656 48.18 89.224 47.964C88.816 47.724 88.18 47.604 87.316 47.604H85.624V57H81.952V34.932H89.332C91.948 34.932 93.784 35.58 94.84 36.876C95.896 38.148 96.424 39.696 96.424 41.52C96.424 42.864 96.1 44.064 95.452 45.12C94.828 46.152 93.736 46.872 92.176 47.28C93.04 47.592 93.664 48.168 94.048 49.008L97.36 57ZM88.936 46.272C90.232 46.272 91.192 45.816 91.816 44.904C92.44 43.968 92.752 42.84 92.752 41.52C92.752 40.056 92.44 38.82 91.816 37.812C91.192 36.804 90.232 36.3 88.936 36.3H85.624V46.272H88.936ZM105.452 57H101.78V34.932H105.452V57ZM124.591 55.164V57H109.147V54.66L120.451 36.768H109.759V34.932H124.303V37.2L112.891 55.164H124.591ZM145.857 37.128L139.845 56.928V57H136.569L130.557 36.948L130.053 57H127.893L128.505 34.932H133.293L138.765 53.364L144.345 34.932H149.313L149.961 57H146.325L145.857 37.128Z" fill="white"/>
<rect x="254.5" y="28.5" width="131" height="34" rx="9.5" fill="black" stroke="white"/>
<path d="M273.24 51V50.214C273.46 50.234 273.642 50.226 273.786 50.19C273.93 50.15 274.046 50.062 274.134 49.926C274.226 49.79 274.306 49.588 274.374 49.32C274.442 49.048 274.51 48.694 274.578 48.258C274.654 47.786 274.718 47.316 274.77 46.848C274.826 46.38 274.874 45.906 274.914 45.426C274.958 44.942 274.994 44.446 275.022 43.938C275.05 43.43 275.076 42.904 275.1 42.36H280.554V51H279.672V43.206H275.952C275.924 43.618 275.896 44.04 275.868 44.472C275.844 44.904 275.812 45.346 275.772 45.798C275.736 46.25 275.69 46.716 275.634 47.196C275.582 47.672 275.516 48.164 275.436 48.672C275.372 49.056 275.296 49.412 275.208 49.74C275.124 50.068 275.004 50.344 274.848 50.568C274.696 50.792 274.49 50.946 274.23 51.03C273.974 51.114 273.644 51.104 273.24 51ZM287.379 44.52V51H286.521V45.954L282.969 51H282.225V44.52H283.083V49.524L286.641 44.52H287.379ZM293.029 51V48.588C292.813 48.696 292.547 48.79 292.231 48.87C291.915 48.95 291.575 48.99 291.211 48.99C290.555 48.99 290.023 48.844 289.615 48.552C289.207 48.26 288.941 47.838 288.817 47.286C288.777 47.122 288.749 46.948 288.733 46.764C288.721 46.58 288.713 46.414 288.709 46.266C288.705 46.118 288.703 46.012 288.703 45.948V44.52H289.591V45.948C289.591 46.08 289.595 46.23 289.603 46.398C289.611 46.566 289.629 46.73 289.657 46.89C289.737 47.326 289.917 47.656 290.197 47.88C290.481 48.104 290.879 48.216 291.391 48.216C291.711 48.216 292.013 48.176 292.297 48.096C292.585 48.012 292.829 47.9 293.029 47.76V44.52H293.911V51H293.029ZM295.584 51V44.52H296.466V47.334H300.12V44.52H301.002V51H300.12V48.18H296.466V51H295.584ZM302.686 51L302.674 44.52H303.562V46.962H304.69C304.878 46.962 305.062 46.966 305.242 46.974C305.422 46.982 305.584 46.998 305.728 47.022C306.048 47.086 306.332 47.194 306.58 47.346C306.828 47.498 307.024 47.708 307.168 47.976C307.312 48.24 307.384 48.574 307.384 48.978C307.384 49.534 307.24 49.972 306.952 50.292C306.664 50.612 306.302 50.82 305.866 50.916C305.702 50.952 305.524 50.976 305.332 50.988C305.14 50.996 304.952 51 304.768 51H302.686ZM303.562 50.244H304.732C304.864 50.244 305.014 50.24 305.182 50.232C305.35 50.224 305.498 50.202 305.626 50.166C305.842 50.106 306.036 49.986 306.208 49.806C306.384 49.622 306.472 49.346 306.472 48.978C306.472 48.614 306.388 48.34 306.22 48.156C306.052 47.968 305.828 47.844 305.548 47.784C305.42 47.756 305.284 47.738 305.14 47.73C305 47.722 304.864 47.718 304.732 47.718H303.562V50.244ZM308.158 51V44.52H309.04V51H308.158ZM313.407 43.752C313.123 43.752 312.863 43.682 312.627 43.542C312.391 43.402 312.203 43.216 312.063 42.984C311.927 42.748 311.859 42.488 311.859 42.204H312.591C312.591 42.428 312.671 42.62 312.831 42.78C312.991 42.94 313.183 43.02 313.407 43.02C313.635 43.02 313.827 42.94 313.983 42.78C314.143 42.62 314.223 42.428 314.223 42.204H314.955C314.955 42.488 314.885 42.748 314.745 42.984C314.609 43.216 314.423 43.402 314.187 43.542C313.951 43.682 313.691 43.752 313.407 43.752ZM315.867 44.52V51H315.009V45.954L311.457 51H310.713V44.52H311.571V49.524L315.129 44.52H315.867ZM319.947 51L319.953 44.52H320.841V47.64L323.733 44.52H324.909L321.873 47.76L325.305 51H324.021L320.841 47.88V51H319.947ZM327.76 51.18C327.272 51.18 326.862 51.092 326.53 50.916C326.202 50.74 325.956 50.506 325.792 50.214C325.628 49.922 325.546 49.604 325.546 49.26C325.546 48.908 325.616 48.608 325.756 48.36C325.9 48.108 326.094 47.902 326.338 47.742C326.586 47.582 326.872 47.46 327.196 47.376C327.524 47.296 327.886 47.226 328.282 47.166C328.682 47.102 329.072 47.048 329.452 47.004C329.836 46.956 330.172 46.91 330.46 46.866L330.148 47.058C330.16 46.418 330.036 45.944 329.776 45.636C329.516 45.328 329.064 45.174 328.42 45.174C327.976 45.174 327.6 45.274 327.292 45.474C326.988 45.674 326.774 45.99 326.65 46.422L325.792 46.17C325.94 45.59 326.238 45.14 326.686 44.82C327.134 44.5 327.716 44.34 328.432 44.34C329.024 44.34 329.526 44.452 329.938 44.676C330.354 44.896 330.648 45.216 330.82 45.636C330.9 45.824 330.952 46.034 330.976 46.266C331 46.498 331.012 46.734 331.012 46.974V51H330.226V49.374L330.454 49.47C330.234 50.026 329.892 50.45 329.428 50.742C328.964 51.034 328.408 51.18 327.76 51.18ZM327.862 50.418C328.274 50.418 328.634 50.344 328.942 50.196C329.25 50.048 329.498 49.846 329.686 49.59C329.874 49.33 329.996 49.038 330.052 48.714C330.1 48.506 330.126 48.278 330.13 48.03C330.134 47.778 330.136 47.59 330.136 47.466L330.472 47.64C330.172 47.68 329.846 47.72 329.494 47.76C329.146 47.8 328.802 47.846 328.462 47.898C328.126 47.95 327.822 48.012 327.55 48.084C327.366 48.136 327.188 48.21 327.016 48.306C326.844 48.398 326.702 48.522 326.59 48.678C326.482 48.834 326.428 49.028 326.428 49.26C326.428 49.448 326.474 49.63 326.566 49.806C326.662 49.982 326.814 50.128 327.022 50.244C327.234 50.36 327.514 50.418 327.862 50.418ZM335.172 51.186C334.568 51.182 334.05 51.05 333.618 50.79C333.186 50.53 332.85 50.142 332.61 49.626C332.374 49.11 332.246 48.466 332.226 47.694C332.214 47.354 332.222 46.984 332.25 46.584C332.278 46.18 332.322 45.796 332.382 45.432C332.442 45.068 332.514 44.772 332.598 44.544C332.702 44.248 332.85 43.972 333.042 43.716C333.238 43.456 333.464 43.244 333.72 43.08C333.968 42.912 334.248 42.782 334.56 42.69C334.876 42.594 335.204 42.52 335.544 42.468C335.888 42.416 336.228 42.37 336.564 42.33C336.904 42.29 337.218 42.24 337.506 42.18L337.602 42.978C337.382 43.022 337.122 43.062 336.822 43.098C336.522 43.134 336.208 43.178 335.88 43.23C335.552 43.278 335.238 43.344 334.938 43.428C334.638 43.512 334.382 43.622 334.17 43.758C333.846 43.954 333.596 44.25 333.42 44.646C333.248 45.042 333.142 45.496 333.102 46.008C333.35 45.62 333.678 45.328 334.086 45.132C334.498 44.936 334.944 44.838 335.424 44.838C336.008 44.838 336.51 44.972 336.93 45.24C337.354 45.508 337.68 45.88 337.908 46.356C338.136 46.832 338.25 47.378 338.25 47.994C338.25 48.638 338.124 49.2 337.872 49.68C337.624 50.16 337.27 50.532 336.81 50.796C336.35 51.056 335.804 51.186 335.172 51.186ZM335.238 50.34C335.918 50.34 336.434 50.128 336.786 49.704C337.142 49.28 337.32 48.716 337.32 48.012C337.32 47.292 337.136 46.724 336.768 46.308C336.404 45.892 335.89 45.684 335.226 45.684C334.562 45.684 334.052 45.892 333.696 46.308C333.34 46.724 333.162 47.292 333.162 48.012C333.162 48.732 333.34 49.3 333.696 49.716C334.052 50.132 334.566 50.34 335.238 50.34ZM344.718 44.52V51H343.86V45.954L340.308 51H339.564V44.52H340.422V49.524L343.98 44.52H344.718ZM346.397 51V44.52H347.279V47.334H350.933V44.52H351.815V51H350.933V48.18H347.279V51H346.397ZM356.234 51.18C355.602 51.18 355.054 51.04 354.59 50.76C354.13 50.48 353.772 50.086 353.516 49.578C353.26 49.07 353.132 48.474 353.132 47.79C353.132 47.082 353.258 46.47 353.51 45.954C353.762 45.438 354.116 45.04 354.572 44.76C355.032 44.48 355.574 44.34 356.198 44.34C356.838 44.34 357.384 44.488 357.836 44.784C358.288 45.076 358.63 45.496 358.862 46.044C359.094 46.592 359.2 47.246 359.18 48.006H358.28V47.694C358.264 46.854 358.082 46.22 357.734 45.792C357.39 45.364 356.886 45.15 356.222 45.15C355.526 45.15 354.992 45.376 354.62 45.828C354.252 46.28 354.068 46.924 354.068 47.76C354.068 48.576 354.252 49.21 354.62 49.662C354.992 50.11 355.518 50.334 356.198 50.334C356.662 50.334 357.066 50.228 357.41 50.016C357.758 49.8 358.032 49.49 358.232 49.086L359.054 49.404C358.798 49.968 358.42 50.406 357.92 50.718C357.424 51.026 356.862 51.18 356.234 51.18ZM353.756 48.006V47.268H358.706V48.006H353.756ZM362.188 51V45.336H359.89V44.52H365.368V45.336H363.07V51H362.188Z" fill="white"/>
<path d="M180.298 56L181.27 53.954L178.198 47.36H179.176L181.732 53.006L184.336 47.36H185.278L181.258 56H180.298ZM188.044 56.18C187.392 56.18 186.84 56.034 186.388 55.742C185.936 55.45 185.592 55.048 185.356 54.536C185.124 54.02 185.004 53.428 184.996 52.76C185.004 52.08 185.128 51.484 185.368 50.972C185.608 50.456 185.954 50.056 186.406 49.772C186.858 49.484 187.406 49.34 188.05 49.34C188.706 49.34 189.276 49.5 189.76 49.82C190.248 50.14 190.582 50.578 190.762 51.134L189.898 51.41C189.746 51.022 189.504 50.722 189.172 50.51C188.844 50.294 188.468 50.186 188.044 50.186C187.568 50.186 187.174 50.296 186.862 50.516C186.55 50.732 186.318 51.034 186.166 51.422C186.014 51.81 185.936 52.256 185.932 52.76C185.94 53.536 186.12 54.16 186.472 54.632C186.824 55.1 187.348 55.334 188.044 55.334C188.484 55.334 188.858 55.234 189.166 55.034C189.478 54.83 189.714 54.534 189.874 54.146L190.762 54.41C190.522 54.986 190.17 55.426 189.706 55.73C189.242 56.03 188.688 56.18 188.044 56.18ZM191.224 56V55.226C191.464 55.27 191.646 55.26 191.77 55.196C191.898 55.128 191.992 55.016 192.052 54.86C192.112 54.7 192.162 54.502 192.202 54.266C192.266 53.874 192.324 53.442 192.376 52.97C192.428 52.498 192.474 51.978 192.514 51.41C192.558 50.838 192.602 50.208 192.646 49.52H197.05V56H196.174V50.366H193.462C193.434 50.79 193.402 51.212 193.366 51.632C193.33 52.052 193.292 52.456 193.252 52.844C193.216 53.228 193.176 53.582 193.132 53.906C193.088 54.23 193.042 54.51 192.994 54.746C192.922 55.102 192.826 55.386 192.706 55.598C192.59 55.81 192.416 55.95 192.184 56.018C191.952 56.086 191.632 56.08 191.224 56ZM201.433 56.18C200.789 56.18 200.239 56.034 199.783 55.742C199.327 55.45 198.977 55.046 198.733 54.53C198.489 54.014 198.367 53.422 198.367 52.754C198.367 52.074 198.491 51.478 198.739 50.966C198.987 50.454 199.339 50.056 199.795 49.772C200.255 49.484 200.801 49.34 201.433 49.34C202.081 49.34 202.633 49.486 203.089 49.778C203.549 50.066 203.899 50.468 204.139 50.984C204.383 51.496 204.505 52.086 204.505 52.754C204.505 53.434 204.383 54.032 204.139 54.548C203.895 55.06 203.543 55.46 203.083 55.748C202.623 56.036 202.073 56.18 201.433 56.18ZM201.433 55.334C202.153 55.334 202.689 55.096 203.041 54.62C203.393 54.14 203.569 53.518 203.569 52.754C203.569 51.97 203.391 51.346 203.035 50.882C202.683 50.418 202.149 50.186 201.433 50.186C200.949 50.186 200.549 50.296 200.233 50.516C199.921 50.732 199.687 51.034 199.531 51.422C199.379 51.806 199.303 52.25 199.303 52.754C199.303 53.534 199.483 54.16 199.843 54.632C200.203 55.1 200.733 55.334 201.433 55.334ZM205.822 56V49.52H208.492C208.628 49.52 208.792 49.528 208.984 49.544C209.18 49.56 209.362 49.59 209.53 49.634C209.894 49.73 210.186 49.926 210.406 50.222C210.63 50.518 210.742 50.874 210.742 51.29C210.742 51.522 210.706 51.73 210.634 51.914C210.566 52.094 210.468 52.25 210.34 52.382C210.28 52.45 210.214 52.51 210.142 52.562C210.07 52.61 210 52.65 209.932 52.682C210.06 52.706 210.198 52.762 210.346 52.85C210.578 52.986 210.754 53.17 210.874 53.402C210.994 53.63 211.054 53.908 211.054 54.236C211.054 54.68 210.948 55.042 210.736 55.322C210.524 55.602 210.24 55.794 209.884 55.898C209.724 55.942 209.55 55.97 209.362 55.982C209.178 55.994 209.004 56 208.84 56H205.822ZM206.71 55.25H208.798C208.882 55.25 208.988 55.244 209.116 55.232C209.244 55.216 209.358 55.196 209.458 55.172C209.694 55.112 209.866 54.992 209.974 54.812C210.086 54.628 210.142 54.428 210.142 54.212C210.142 53.928 210.058 53.696 209.89 53.516C209.726 53.332 209.506 53.22 209.23 53.18C209.138 53.16 209.042 53.148 208.942 53.144C208.842 53.14 208.752 53.138 208.672 53.138H206.71V55.25ZM206.71 52.382H208.522C208.626 52.382 208.742 52.376 208.87 52.364C209.002 52.348 209.116 52.322 209.212 52.286C209.42 52.214 209.572 52.09 209.668 51.914C209.768 51.738 209.818 51.546 209.818 51.338C209.818 51.11 209.764 50.91 209.656 50.738C209.552 50.566 209.394 50.446 209.182 50.378C209.038 50.326 208.882 50.296 208.714 50.288C208.55 50.28 208.446 50.276 208.402 50.276H206.71V52.382ZM217.398 49.52V56H216.54V50.954L212.988 56H212.244V49.52H213.102V54.524L216.66 49.52H217.398ZM223.144 56V53.558H221.632C221.456 53.558 221.274 53.552 221.086 53.54C220.902 53.524 220.73 53.502 220.57 53.474C220.114 53.386 219.726 53.186 219.406 52.874C219.09 52.558 218.932 52.122 218.932 51.566C218.932 51.022 219.08 50.586 219.376 50.258C219.672 49.926 220.03 49.71 220.45 49.61C220.642 49.566 220.836 49.54 221.032 49.532C221.232 49.524 221.404 49.52 221.548 49.52H224.026L224.032 56H223.144ZM218.722 56L220.528 53.282H221.506L219.688 56H218.722ZM221.584 52.802H223.144V50.276H221.584C221.488 50.276 221.354 50.28 221.182 50.288C221.01 50.296 220.848 50.322 220.696 50.366C220.564 50.406 220.432 50.476 220.3 50.576C220.172 50.672 220.064 50.802 219.976 50.966C219.888 51.126 219.844 51.322 219.844 51.554C219.844 51.878 219.932 52.138 220.108 52.334C220.288 52.526 220.512 52.658 220.78 52.73C220.924 52.762 221.068 52.782 221.212 52.79C221.356 52.798 221.48 52.802 221.584 52.802ZM178.84 68V59.36H185.458V68H184.576V60.206H179.722V68H178.84ZM190.047 68.18C189.451 68.18 188.947 68.03 188.535 67.73C188.123 67.426 187.811 67.016 187.599 66.5C187.387 65.98 187.281 65.398 187.281 64.754C187.281 64.098 187.387 63.514 187.599 63.002C187.815 62.486 188.131 62.08 188.547 61.784C188.963 61.488 189.475 61.34 190.083 61.34C190.675 61.34 191.183 61.49 191.607 61.79C192.031 62.09 192.355 62.498 192.579 63.014C192.807 63.53 192.921 64.11 192.921 64.754C192.921 65.402 192.807 65.984 192.579 66.5C192.351 67.016 192.023 67.426 191.595 67.73C191.167 68.03 190.651 68.18 190.047 68.18ZM187.131 70.88V61.52H187.923V66.398H188.019V70.88H187.131ZM189.957 67.358C190.409 67.358 190.785 67.244 191.085 67.016C191.385 66.788 191.609 66.478 191.757 66.086C191.909 65.69 191.985 65.246 191.985 64.754C191.985 64.266 191.911 63.826 191.763 63.434C191.615 63.042 191.389 62.732 191.085 62.504C190.785 62.276 190.403 62.162 189.939 62.162C189.487 62.162 189.111 62.272 188.811 62.492C188.515 62.712 188.293 63.018 188.145 63.41C187.997 63.798 187.923 64.246 187.923 64.754C187.923 65.254 187.997 65.702 188.145 66.098C188.293 66.49 188.517 66.798 188.817 67.022C189.117 67.246 189.497 67.358 189.957 67.358ZM196.944 68.18C196.3 68.18 195.75 68.034 195.294 67.742C194.838 67.45 194.488 67.046 194.244 66.53C194 66.014 193.878 65.422 193.878 64.754C193.878 64.074 194.002 63.478 194.25 62.966C194.498 62.454 194.85 62.056 195.306 61.772C195.766 61.484 196.312 61.34 196.944 61.34C197.592 61.34 198.144 61.486 198.6 61.778C199.06 62.066 199.41 62.468 199.65 62.984C199.894 63.496 200.016 64.086 200.016 64.754C200.016 65.434 199.894 66.032 199.65 66.548C199.406 67.06 199.054 67.46 198.594 67.748C198.134 68.036 197.584 68.18 196.944 68.18ZM196.944 67.334C197.664 67.334 198.2 67.096 198.552 66.62C198.904 66.14 199.08 65.518 199.08 64.754C199.08 63.97 198.902 63.346 198.546 62.882C198.194 62.418 197.66 62.186 196.944 62.186C196.46 62.186 196.06 62.296 195.744 62.516C195.432 62.732 195.198 63.034 195.042 63.422C194.89 63.806 194.814 64.25 194.814 64.754C194.814 65.534 194.994 66.16 195.354 66.632C195.714 67.1 196.244 67.334 196.944 67.334ZM200.86 69.44V67.244C201.228 67.244 201.492 67.126 201.652 66.89C201.812 66.65 201.942 66.268 202.042 65.744C202.11 65.404 202.166 65.038 202.21 64.646C202.254 64.254 202.292 63.806 202.324 63.302C202.356 62.794 202.386 62.2 202.414 61.52H206.698V67.244H207.322V69.44H206.47V68H201.706V69.44H200.86ZM202.354 67.244H205.822V62.276H203.23C203.218 62.58 203.2 62.902 203.176 63.242C203.156 63.582 203.13 63.922 203.098 64.262C203.07 64.602 203.036 64.922 202.996 65.222C202.96 65.518 202.916 65.778 202.864 66.002C202.804 66.29 202.738 66.536 202.666 66.74C202.598 66.944 202.494 67.112 202.354 67.244ZM210.378 68.18C209.89 68.18 209.48 68.092 209.148 67.916C208.82 67.74 208.574 67.506 208.41 67.214C208.246 66.922 208.164 66.604 208.164 66.26C208.164 65.908 208.234 65.608 208.374 65.36C208.518 65.108 208.712 64.902 208.956 64.742C209.204 64.582 209.49 64.46 209.814 64.376C210.142 64.296 210.504 64.226 210.9 64.166C211.3 64.102 211.69 64.048 212.07 64.004C212.454 63.956 212.79 63.91 213.078 63.866L212.766 64.058C212.778 63.418 212.654 62.944 212.394 62.636C212.134 62.328 211.682 62.174 211.038 62.174C210.594 62.174 210.218 62.274 209.91 62.474C209.606 62.674 209.392 62.99 209.268 63.422L208.41 63.17C208.558 62.59 208.856 62.14 209.304 61.82C209.752 61.5 210.334 61.34 211.05 61.34C211.642 61.34 212.144 61.452 212.556 61.676C212.972 61.896 213.266 62.216 213.438 62.636C213.518 62.824 213.57 63.034 213.594 63.266C213.618 63.498 213.63 63.734 213.63 63.974V68H212.844V66.374L213.072 66.47C212.852 67.026 212.51 67.45 212.046 67.742C211.582 68.034 211.026 68.18 210.378 68.18ZM210.48 67.418C210.892 67.418 211.252 67.344 211.56 67.196C211.868 67.048 212.116 66.846 212.304 66.59C212.492 66.33 212.614 66.038 212.67 65.714C212.718 65.506 212.744 65.278 212.748 65.03C212.752 64.778 212.754 64.59 212.754 64.466L213.09 64.64C212.79 64.68 212.464 64.72 212.112 64.76C211.764 64.8 211.42 64.846 211.08 64.898C210.744 64.95 210.44 65.012 210.168 65.084C209.984 65.136 209.806 65.21 209.634 65.306C209.462 65.398 209.32 65.522 209.208 65.678C209.1 65.834 209.046 66.028 209.046 66.26C209.046 66.448 209.092 66.63 209.184 66.806C209.28 66.982 209.432 67.128 209.64 67.244C209.852 67.36 210.132 67.418 210.48 67.418ZM220.292 68.18C219.72 68.18 219.222 68.058 218.798 67.814C218.374 67.566 218.036 67.22 217.784 66.776C217.536 66.328 217.386 65.802 217.334 65.198H216.068V68H215.186V61.52H216.068V64.322H217.328C217.38 63.71 217.532 63.182 217.784 62.738C218.04 62.29 218.38 61.946 218.804 61.706C219.232 61.462 219.73 61.34 220.298 61.34C220.942 61.34 221.492 61.486 221.948 61.778C222.408 62.07 222.758 62.472 222.998 62.984C223.242 63.496 223.364 64.084 223.364 64.748C223.364 65.428 223.24 66.026 222.992 66.542C222.748 67.058 222.396 67.46 221.936 67.748C221.48 68.036 220.932 68.18 220.292 68.18ZM220.274 67.334C221.002 67.334 221.542 67.098 221.894 66.626C222.25 66.15 222.428 65.526 222.428 64.754C222.428 63.966 222.248 63.342 221.888 62.882C221.532 62.418 220.996 62.186 220.28 62.186C219.596 62.186 219.072 62.414 218.708 62.87C218.344 63.322 218.162 63.948 218.162 64.748C218.162 65.532 218.34 66.16 218.696 66.632C219.056 67.1 219.582 67.334 220.274 67.334ZM232.07 69.122V68H224.678V61.52H225.536V67.184H227.966V61.52H228.824V67.184H231.248V61.52H232.106V67.184H232.952V69.122H232.07ZM239.054 61.52V68H238.196V62.954L234.644 68H233.9V61.52H234.758V66.524L238.316 61.52H239.054ZM243.426 60.752C243.142 60.752 242.882 60.682 242.646 60.542C242.41 60.402 242.222 60.216 242.082 59.984C241.946 59.748 241.878 59.488 241.878 59.204H242.61C242.61 59.428 242.69 59.62 242.85 59.78C243.01 59.94 243.202 60.02 243.426 60.02C243.654 60.02 243.846 59.94 244.002 59.78C244.162 59.62 244.242 59.428 244.242 59.204H244.974C244.974 59.488 244.904 59.748 244.764 59.984C244.628 60.216 244.442 60.402 244.206 60.542C243.97 60.682 243.71 60.752 243.426 60.752ZM245.886 61.52V68H245.028V62.954L241.476 68H240.732V61.52H241.59V66.524L245.148 61.52H245.886Z" fill="white"/>
</svg>
